<svg id="Layer_1" data-name="Layer 1" xmlns="http://www.w3.org/2000/svg" viewBox="0 0 36.91 12.16"><defs><style>.cls-1{fill:#f58526;}.cls-2{fill:#fbd6b9;}.cls-3{fill:#f58629;}.cls-4{fill:#f69130;}.cls-5{fill:#f69039;}.cls-6{fill:#f9ae4b;}.cls-7{fill:#f9aa3f;}.cls-8{fill:#f9ad4a;}.cls-9{fill:#fce9e2;}.cls-10{fill:#f68d2f;}.cls-11{fill:#f9a94a;}.cls-12{fill:#f7973c;}.cls-13{fill:#f9a942;}.cls-14{fill:#fdf3ea;}.cls-15{fill:#f79c3b;}.cls-16{fill:#f8a641;}.cls-17{fill:#f69537;}.cls-18{fill:#fdedde;}.cls-19{fill:#fdf3e9;}.cls-20{fill:#f8a041;}.cls-21{fill:#f69236;}.cls-22{fill:#fdf5ee;}.cls-23{fill:#f58e3c;}.cls-24{fill:#f7963a;}.cls-25{fill:#f3805c;}.cls-26{fill:#f37f5b;}.cls-27{fill:#f89e37;}.cls-28{fill:#f9ab47;}.cls-29{fill:#f79b3a;}.cls-30{fill:#f58831;}.cls-31{fill:#f7a462;}.cls-32{fill:#f79c3c;}.cls-33{fill:#f6974b;}.cls-34{fill:#fab550;}.cls-35{fill:#f69a51;}.cls-36{fill:#f7a666;}.cls-37{fill:#f8ac6f;}.cls-38{fill:#f8a94f;}.cls-39{fill:#fbce9a;}.cls-40{fill:#fbcf9e;}.cls-41{fill:#f8a958;}.cls-42{fill:#fce1c1;}.cls-43{fill:#f7a766;}.cls-44{fill:#f79d3c;}.cls-45{fill:#fefcfa;}.cls-46{fill:#fef7f2;}.cls-47{fill:#fdf1e9;}.cls-48{fill:#f38563;}.cls-49{fill:#f49273;}.cls-50{fill:#fbd7cb;}.cls-51{fill:#fde9da;}.cls-52{fill:#f8a039;}.cls-53{fill:#fefbfa;}.cls-54{fill:#fce2cb;}.cls-55{fill:#fef8f3;}.cls-56{fill:#fab357;}.cls-57{fill:#fefaf4;}.cls-58{fill:#f48c6c;}.cls-59{fill:#f38360;}.cls-60{fill:#f6a992;}.cls-61{fill:#f6a288;}.cls-62{fill:#f5977a;}.cls-63{fill:#f48866;}.cls-64{fill:#f7a78e;}.cls-65{fill:#fbd4c8;}.cls-66{fill:#f37c58;}.cls-67{fill:#f69e83;}.cls-68{fill:#f59375;}.cls-69{fill:#fdf1ee;}</style></defs><title>favicon</title><path class="cls-1" d="M954.42,541.38c-.39.08-.84-.14-1.19.21a1.56,1.56,0,0,1-1,.29,4,4,0,0,0-1.37,0l-.35,0a13.83,13.83,0,0,1-1.44,0,2.29,2.29,0,0,1-.36-.07,2.84,2.84,0,0,1-.5-.23,2.14,2.14,0,0,0-.44-.18c-.41-.12-.71-.34-.67-.83s.4-.62.81-.71a1.78,1.78,0,0,0,.45-.13,4.1,4.1,0,0,0,.71-.46,3.19,3.19,0,0,1,.69-.46,1.22,1.22,0,0,1,1.23.32c.62.42.88-.23,1.28-.43l.07,0c.58-.43.8.08,1.1.41.54.73,1.15,0,1.72.07.86.1,1.72,0,2.57.07a1.28,1.28,0,0,1,.83.37l0,0c.17.24.43.17.65.17H970c.23,0,.48.06.67-.15l0,0a5.24,5.24,0,0,1,3.29-.59,14.55,14.55,0,0,0,2.47,0,1.35,1.35,0,0,1,1.45.58l.21.27a1.2,1.2,0,0,1,0,1.15h0a4.22,4.22,0,0,1-2.21.31c-3.81,0-7.62,0-11.43,0-2.93,0-5.86-.09-8.79.07A7.85,7.85,0,0,1,954.42,541.38Z" transform="translate(-941.44 -534.49)"/><path class="cls-2" d="M964.48,541.86c-.28-.36-.54-.31-.8,0a4.72,4.72,0,0,1-.75.14,1.75,1.75,0,0,0-.72.15,1.06,1.06,0,0,1-.86-.34c-1,.46-1.87-.48-2.84-.23-.06-.37.21-.36.45-.36,6.22,0,12.44,0,18.66,0,.06,0,.13.07.2.11-.45.47-1.33,0-1.65.72-.23,0-.36.17-.52.29a.42.42,0,0,1-.29,0,.85.85,0,0,0-.69-.16,1.49,1.49,0,0,1-.89-.32c-.34-.32-.27.26-.49.21-.38.22-.72,0-1.07-.1a.85.85,0,0,1-.88-.14c-.72.71-1.21-.29-1.83-.24-.27.15-.36.52-.7.58s-.5-.06-.75,0a3.87,3.87,0,0,1-.9.09c-.19,0-.37-.12-.56-.17s-.48.11-.72.12-.53,0-.8-.07A1,1,0,0,1,964.48,541.86Z" transform="translate(-941.44 -534.49)"/><path class="cls-3" d="M977.82,541.37H959.6c-.36,0-.8-.19-1.09.23-.37.93-1.22.28-1.81.44s-1.79.42-2.28-.66c.38-.45.89-.26,1.35-.26H978Z" transform="translate(-941.44 -534.49)"/><path class="cls-4" d="M977.83,539.68a23.55,23.55,0,0,0-7.21,0c0-.68.83-.28,1-.72s-.07-.87.2-1.27a2.41,2.41,0,0,1,1.63-.15,1.78,1.78,0,0,1,.5.19c.27,0,.57-.2.8.09s-.12.81.18,1.15h0c.46.26.79.25.84-.38,0-.26-.08-.53.12-.76l.46,0c.2.16.42,0,.62,0,.44,0,.4.45.59.68C977.64,538.89,977.92,539.24,977.83,539.68Z" transform="translate(-941.44 -534.49)"/><path class="cls-5" d="M942.92,543.29c-2.08-1.9-2-4,.3-5.51a.74.74,0,0,1,.33.71c-.21.49-.71.79-.86,1.32a2.62,2.62,0,0,0,0,1.66,3.15,3.15,0,0,0,1,1.21.62.62,0,0,1,.11.34C943.65,543.55,943.29,543.43,942.92,543.29Z" transform="translate(-941.44 -534.49)"/><path class="cls-6" d="M946.73,546.39c-.94-.07-1.37-.77-1.81-1.46.14-.2.23-.45.49-.55a.37.37,0,0,1,.28.08,2.39,2.39,0,0,0,.79.88,1.79,1.79,0,0,0,2.33.08c.83-.47.94-1.36,1.25-2.14.36-.28.44.48.8.22,0,1.45-1,2.23-2.09,2.89A5,5,0,0,1,946.73,546.39Z" transform="translate(-941.44 -534.49)"/><path class="cls-7" d="M974,538l-.29-.2c-.3-1-1.52-.63-2-1.35-.08-.62.07-1,.81-.93a4.31,4.31,0,0,0,1.19,0c.93-.14,1.22.28,1.09,1.14.14.7-.6.38-.81.67a.5.5,0,0,0,0,.21A.41.41,0,0,1,974,538Z" transform="translate(-941.44 -534.49)"/><path class="cls-8" d="M945.58,535.29a3,3,0,0,1,4.16.07,1.19,1.19,0,0,1-.55.58,1.53,1.53,0,0,1-.79-.12,2.13,2.13,0,0,0-1.55,0c-.36.12-.68.47-1.12.27A.63.63,0,0,1,945.58,535.29Z" transform="translate(-941.44 -534.49)"/><path class="cls-9" d="M965.18,541.83c.24,0,.5,0,.68.18.45.75.47-.31.77-.17a.47.47,0,0,1,.46.24c.19.38.43.65.89.37a.65.65,0,0,1,.31,0,2.62,2.62,0,0,1,.69.55,10.18,10.18,0,0,1-5.2,0C964.54,543,964.69,542.19,965.18,541.83Z" transform="translate(-941.44 -534.49)"/><path class="cls-10" d="M970.65,539.65c-.25.37-.63.27-1,.27H959.46c-.34,0-.73.11-1-.29Z" transform="translate(-941.44 -534.49)"/><path class="cls-11" d="M945.37,544.45c0,.3-.15.47-.45.48-.16-1.17-1.49-.9-2-1.64.33,0,.74,0,.77-.48.55-.35,1.07-.09,1.59.09A1.07,1.07,0,0,1,945.37,544.45Z" transform="translate(-941.44 -534.49)"/><path class="cls-7" d="M976.38,537.05l-.47.2c-.31-1.81-.19-1.92,1.65-1.62l0,1.43c-.22.17-.45.05-.68,0S976.56,536.9,976.38,537.05Z" transform="translate(-941.44 -534.49)"/><path class="cls-12" d="M943.46,538.5l-.24-.72c.38-.44,1.18,0,1.43-.72a.59.59,0,0,1,.78,0c.33,1.24.22,1.37-1.38,1.63A.74.74,0,0,1,943.46,538.5Z" transform="translate(-941.44 -534.49)"/><path class="cls-13" d="M974.71,537.06c-.07-.62.31-1.63-.9-1.4-.69.13-2-.79-1.94.93a.91.91,0,0,1,0,1.2c-.07.39.13.82-.21,1.16,0-.91,0-1.82,0-2.73,0-.63.22-.88.84-.82.27,0,.55,0,.83,0,1.7,0,1.67-.36,1.64,1.64A.15.15,0,0,1,974.71,537.06Z" transform="translate(-941.44 -534.49)"/><path class="cls-14" d="M954.82,539.41c-.51.27-1,.94-1.56,0a.68.68,0,0,1,0-.77,1,1,0,0,1,1.17.05c.32,0,.7-.54,1,.1C955.13,539,955.14,539.34,954.82,539.41Z" transform="translate(-941.44 -534.49)"/><path class="cls-15" d="M950.86,543.5c-.47.62-.47-.17-.71-.24a.91.91,0,0,1-.59-1.12c.28-.32.84-.1,1.06-.55l.29,0a5.39,5.39,0,0,0,.93,1.15C951.64,543.18,951,543,950.86,543.5Z" transform="translate(-941.44 -534.49)"/><path class="cls-10" d="M954.82,539.41c.14-.23,0-.72.52-.59.72.49,1.54.14,2.3.2.56.05.76.18.9.64A25.74,25.74,0,0,0,954.82,539.41Z" transform="translate(-941.44 -534.49)"/><path class="cls-16" d="M949.19,535.83c0-.35.25-.44.55-.47a2.42,2.42,0,0,1,1.12,2.18c-.36.12-.51-.29-.81-.32a1,1,0,0,1-.28-.13A1.7,1.7,0,0,1,949.19,535.83Z" transform="translate(-941.44 -534.49)"/><path class="cls-17" d="M950.87,539.44a1.21,1.21,0,0,0-1.16-.48l-.13-.1a.66.66,0,0,1,.15-.6c.16-.21.23-.5.52-.61a11.34,11.34,0,0,1,1.3.36l.12.23C951.56,538.74,951.14,539,950.87,539.44Z" transform="translate(-941.44 -534.49)"/><path class="cls-18" d="M950.87,539.44c-.25-.75.36-.92.8-1.2.32,0,.35.35.58.46C952,539.39,951.73,539.94,950.87,539.44Z" transform="translate(-941.44 -534.49)"/><path class="cls-19" d="M951.84,542.77c-.85.05-1-.43-.93-1.15.36-.34.71,0,1.06,0s.5.34.26.69Z" transform="translate(-941.44 -534.49)"/><path class="cls-20" d="M945.34,537.06h-.69a2,2,0,0,1,.93-1.77c.09.29.19.57.28.86A.71.71,0,0,1,945.34,537.06Z" transform="translate(-941.44 -534.49)"/><path class="cls-21" d="M952.23,542.31l-.26-.69,1.26,0c-.19.37-.32.73.23.91.2-.08.4-.12.55.09-.34.57-.81.29-1.25.2A.93.93,0,0,1,952.23,542.31Z" transform="translate(-941.44 -534.49)"/><path class="cls-22" d="M974.65,542c.35-.19.82-.75.77.26.19.43-.18.53-.42.71l-.61,0C974,542.54,974.12,542.23,974.65,542Z" transform="translate(-941.44 -534.49)"/><path class="cls-23" d="M972.33,541.84a1.26,1.26,0,0,1,1,.23c0,.11,0,.25-.06.33-.2.28-.39.7-.78.57s.09-.61-.13-.88c-.08-.06-.11-.12-.08-.17S972.3,541.84,972.33,541.84Z" transform="translate(-941.44 -534.49)"/><path class="cls-3" d="M974.65,542a.79.79,0,0,0-.26.94c-1.4.28-.45-.73-.61-1.12C974.08,541.85,974.4,541.74,974.65,542Z" transform="translate(-941.44 -534.49)"/><path class="cls-24" d="M953.26,538.78v.66c-.32-.22-.32-.88-.94-.7.53-.82,1.15-1,1.88-.25C953.94,538.77,953.49,538.41,953.26,538.78Z" transform="translate(-941.44 -534.49)"/><path class="cls-25" d="M969,543c-.34,0-.77.15-.68-.47a.56.56,0,0,1,.43-.51c.26-.15.38-.53.78-.45Z" transform="translate(-941.44 -534.49)"/><path class="cls-26" d="M965.18,541.83c-.17.75-.41,1.41-1.4,1.14a1.94,1.94,0,0,0,.7-1.11Z" transform="translate(-941.44 -534.49)"/><path class="cls-27" d="M976.81,536.84l.77.22v1.43c-.26-.16-.39-.53-.77-.5A2,2,0,0,1,976.81,536.84Z" transform="translate(-941.44 -534.49)"/><path class="cls-28" d="M977.56,535.63c-1.79,0-1.65-.23-1.65,1.62a1.31,1.31,0,0,1,0-1.67A1.37,1.37,0,0,1,977.56,535.63Z" transform="translate(-941.44 -534.49)"/><path class="cls-29" d="M951.55,538a3.87,3.87,0,0,1-1.39-.24.45.45,0,0,1,0-.67c.66-.56.38.48.74.44Z" transform="translate(-941.44 -534.49)"/><path class="cls-30" d="M961.35,541.83a1.18,1.18,0,0,1,.94.26.31.31,0,0,1,.13.2.2.2,0,0,1-.12.19l-.48.3c-.39.06-.57-.08-.48-.49Z" transform="translate(-941.44 -534.49)"/><path class="cls-31" d="M972.33,541.84v.25c-.41,0-.38.54-.75.64-.35-.23-.11-.62-.23-.9Z" transform="translate(-941.44 -534.49)"/><path class="cls-32" d="M975.91,537.81c-.27.42.64,1.83-1,1.14C976.1,539.26,975.37,538,975.91,537.81Z" transform="translate(-941.44 -534.49)"/><path class="cls-33" d="M962.3,542.48a.47.47,0,0,1,0-.17c.17-.14.24-.4.49-.46l.88,0-.36.21c-.31.15-.13.83-.73.67Z" transform="translate(-941.44 -534.49)"/><path class="cls-34" d="M946.73,546.39h2A2.11,2.11,0,0,1,946.73,546.39Z" transform="translate(-941.44 -534.49)"/><path class="cls-35" d="M975,543l.42-.71.22-.07a.29.29,0,0,1,.07.4C975.78,543.33,975.28,543,975,543Z" transform="translate(-941.44 -534.49)"/><path class="cls-36" d="M962.59,542.76l.73-.67C963.18,543.14,963.18,543.14,962.59,542.76Z" transform="translate(-941.44 -534.49)"/><path class="cls-37" d="M961.34,542.29a.78.78,0,0,0,.48.49.42.42,0,0,1-.72.15C960.9,542.72,961.12,542.46,961.34,542.29Z" transform="translate(-941.44 -534.49)"/><path class="cls-38" d="M952.76,542.79c.39-.08.84.15,1.19-.22.23-.11.32-.05.24.21A1,1,0,0,1,952.76,542.79Z" transform="translate(-941.44 -534.49)"/><path class="cls-39" d="M976.81,536.84V538a.44.44,0,0,1-.44-.21c.29-.24.31-.48,0-.73Z" transform="translate(-941.44 -534.49)"/><path class="cls-40" d="M954.19,542.78l-.24-.21-.49-.07a.67.67,0,0,1,.86-.09C954.45,542.5,954.34,542.69,954.19,542.78Z" transform="translate(-941.44 -534.49)"/><path class="cls-41" d="M953.26,538.78c.21-.44.61-.27.94-.29l.19.23Z" transform="translate(-941.44 -534.49)"/><path class="cls-42" d="M974.71,537.06a.65.65,0,0,0,.24,0c-.22.41-.61.21-.93.26C974,536.56,974.54,537.3,974.71,537.06Z" transform="translate(-941.44 -534.49)"/><path class="cls-43" d="M975.71,542.63c0-.14-.05-.27-.07-.4.07-.44.23-.57.53-.14Z" transform="translate(-941.44 -534.49)"/><path class="cls-44" d="M975,539c-.44-.32-.2-.78-.26-1.18a.15.15,0,0,1,.24,0Z" transform="translate(-941.44 -534.49)"/><path class="cls-42" d="M975,537.77h-.24c-.27-.09-.46.1-.67.2,0-.15,0-.31,0-.46C974.34,537.57,974.73,537.37,975,537.77Z" transform="translate(-941.44 -534.49)"/><path class="cls-3" d="M978,541.1V540A.69.69,0,0,1,978,541.1Z" transform="translate(-941.44 -534.49)"/><path class="cls-45" d="M945.34,537.06l.52-.91c.32-.18.53-.57,1-.51a.48.48,0,0,1,.77.12c.07.71-.56,1-.88,1.46a1.27,1.27,0,0,0-.32,1.21c.09.52.36.57.72.2.13-.23.17-.52.4-.69.87,0,.88,1.16,1.69,1.22a.22.22,0,0,1,0,.32l-.49.44c-.24.19-.52.11-.78.11s-.78,0-.79.57.23.67.7.64c.22,0,.48-.08.61.2l.26.2a.5.5,0,0,1-.09.78c-.4.21-.85.29-1.25.5a2.5,2.5,0,0,0-.7.33c-.39.65.19,1.4-.22,2l-.12.11c-.63,0-.67-.5-.76-.94s0-1-.13-1.5a2.91,2.91,0,0,1,.07-.88,3,3,0,0,0-.51-1.83.71.71,0,0,1,0-.32.41.41,0,0,0-.08-.64c-.24-.4-1-.13-1-.79.17-.07.35-.21.51-.19C945.55,538.45,945.55,537.83,945.34,537.06Z" transform="translate(-941.44 -534.49)"/><path class="cls-46" d="M948.53,542.29c.21-.17.17-.42.18-.65a.85.85,0,0,1,.23,0c.17.2.65,0,.62.49l.59,1.17a2.4,2.4,0,0,1-1.21,2.37.65.65,0,0,1-.14-.29,7.79,7.79,0,0,0,.07-1.27c-.23-.74-.85-.36-1.3-.45-.6-.11-.61-.09-.35-.71A12,12,0,0,0,948.53,542.29Z" transform="translate(-941.44 -534.49)"/><path class="cls-3" d="M948.45,541.44a8.79,8.79,0,0,1-1.16-.09c-.45-.11-.21-.52-.24-.79s0-.56.37-.57.86,0,1.29-.07l-.08.09c-.36.39-1.17-.19-1.3.53C947.15,541.44,948.31,540.83,948.45,541.44Z" transform="translate(-941.44 -534.49)"/><path class="cls-21" d="M949.56,542.09l-.62-.49h1.68C950.66,542.59,950.05,542.21,949.56,542.09Z" transform="translate(-941.44 -534.49)"/><path class="cls-47" d="M949.2,539.48l0-.31a2,2,0,0,1-.27-1.6.85.85,0,0,1,.27-.54c.65.12.53.63.52,1.06s-.24.57-.08.88h.1Z" transform="translate(-941.44 -534.49)"/><path class="cls-48" d="M968.07,542.55c-.2.31-.41.64-.84.45s-.13-.6-.14-.92l.94-.25A.55.55,0,0,1,968.07,542.55Z" transform="translate(-941.44 -534.49)"/><path class="cls-49" d="M966.63,541.84a2.49,2.49,0,0,1-.2.54c-.14.25-.21.75-.58.58s-.24-.63,0-1C966.13,542,966.24,541.32,966.63,541.84Z" transform="translate(-941.44 -534.49)"/><path class="cls-50" d="M968.07,542.55l0-.72c.25,0,.53-.05.7.21l-.43.51Z" transform="translate(-941.44 -534.49)"/><path class="cls-51" d="M962.8,541.85c0,.29-.13.52-.49.46a1.64,1.64,0,0,0,0-.22C962.36,541.79,962.4,541.45,962.8,541.85Z" transform="translate(-941.44 -534.49)"/><path class="cls-52" d="M971.87,537.79v-1.2c.83.08,2-.44,1.88,1.19Z" transform="translate(-941.44 -534.49)"/><path class="cls-53" d="M943.94,538.5c.26.47,1.08-.08,1.19.65-.17.21-.42.12-.64.14s-.17.15-.06.27a.72.72,0,0,1,.15.42.94.94,0,0,1-.07.3,2.45,2.45,0,0,0-.29,1.18,2.82,2.82,0,0,1-.08.82c-.1.34-.37.4-.67.39a1.45,1.45,0,0,1-1-1.08,3.5,3.5,0,0,1,0-1.9,2,2,0,0,1,1-1.19Z" transform="translate(-941.44 -534.49)"/><path class="cls-54" d="M943.47,542.67l.48-.38a.85.85,0,0,1,.59,0c.47.14.82-.37,1.28-.25.07.31-.14.53-.25.79s-.32.08-.47.16l-1.41-.18Z" transform="translate(-941.44 -534.49)"/><path class="cls-12" d="M942.5,539.69v1.9A1.81,1.81,0,0,1,942.5,539.69Z" transform="translate(-941.44 -534.49)"/><path class="cls-55" d="M948.94,545.39v.24c-.91.43-1.84,1-2.61-.23l0,0a2.25,2.25,0,0,1,.36-.24A2.82,2.82,0,0,1,948.94,545.39Z" transform="translate(-941.44 -534.49)"/><path class="cls-56" d="M945.1,543l.47-.16v1.63h-.2C945.28,544,945.57,543.41,945.1,543Z" transform="translate(-941.44 -534.49)"/><path class="cls-45" d="M949.61,539c-.47-.56.16-1.37-.44-1.9a.33.33,0,0,1-.32,0c-.33-.43-.88-.71-1-1.33.15-.25.33-.31.57-.13l.72.2.73,1.18a2,2,0,0,1,0,1.42Z" transform="translate(-941.44 -534.49)"/><path class="cls-57" d="M948.47,535.63a.51.51,0,0,0-.5.29.35.35,0,0,1-.44,0c-.15-.3-.43-.28-.69-.27A1.41,1.41,0,0,1,948.47,535.63Z" transform="translate(-941.44 -534.49)"/><path class="cls-47" d="M949.89,538.43l0-1.42.2.09c0,.23,0,.45,0,.67S950.17,538.29,949.89,538.43Z" transform="translate(-941.44 -534.49)"/><path class="cls-58" d="M945.82,542c-.42.3-.74.88-1.4.49a1.78,1.78,0,0,1-.24-1.17,2.29,2.29,0,0,1,.25-1.18l0,0a.47.47,0,0,1,.69.07A2,2,0,0,1,945.82,542Z" transform="translate(-941.44 -534.49)"/><path class="cls-59" d="M947.53,535.91H948c.55.19.76.66,1,1.12a1.5,1.5,0,0,1-2.44,0Z" transform="translate(-941.44 -534.49)"/><path class="cls-26" d="M949.19,537.53c0,.55,0,1.09,0,1.64-1.09.43-1-.77-1.59-1.11-.35.09-.53-.08-.59-.41A3,3,0,0,1,949.19,537.53Z" transform="translate(-941.44 -534.49)"/><path class="cls-60" d="M949.19,537.53c-.71.12-1.48-.25-2.15.24s0,.89.41,1.18c-.38.42-1,.41-1.18.07a1.57,1.57,0,0,1,.25-2,2.42,2.42,0,0,0,2.44,0l.21,0C949.17,537.22,949.18,537.38,949.19,537.53Z" transform="translate(-941.44 -534.49)"/><path class="cls-61" d="M947.28,543c.13.32.13.29.86.34.43,0,1.09-.23,1,.64a3.25,3.25,0,0,1-2.45,0,1.47,1.47,0,0,1-.19-1l.76-.23c.06.06.08.11.06.17S947.3,543,947.28,543Z" transform="translate(-941.44 -534.49)"/><path class="cls-58" d="M944.4,539.7a1.57,1.57,0,0,1-.95-.61,2.12,2.12,0,0,1,1.68.06c.15.25.66.22.59.6s-.38.13-.59.16A.89.89,0,0,1,944.4,539.7Z" transform="translate(-941.44 -534.49)"/><path class="cls-62" d="M947.45,539c-.4-.06-1,.29-1.11-.43-.1-.53.14-.8.7-.75l.54.29C947.54,538.36,947.5,538.66,947.45,539Z" transform="translate(-941.44 -534.49)"/><path class="cls-63" d="M946.51,543c.4.23.26.63.31,1a1.51,1.51,0,0,1-.25,1.35l-.26.12a3.87,3.87,0,0,0-.14-1.85C946,543.26,946.18,543.05,946.51,543Z" transform="translate(-941.44 -534.49)"/><path class="cls-64" d="M947.28,543v-.26a1.65,1.65,0,0,1,1.25-.46A1.37,1.37,0,0,1,947.28,543Z" transform="translate(-941.44 -534.49)"/><path class="cls-65" d="M944.4,539.7a.82.82,0,0,1,.73.21l0,.29-.69-.07Z" transform="translate(-941.44 -534.49)"/><path class="cls-66" d="M946.57,545.3c.06-.45-.19-1,.25-1.35a8.66,8.66,0,0,1,2.33,0,1.82,1.82,0,0,1-.21,1.4Z" transform="translate(-941.44 -534.49)"/><path class="cls-67" d="M944.41,541.36c0,.39,0,.78,0,1.17l-.47-.24v-.94A.3.3,0,0,1,944.41,541.36Z" transform="translate(-941.44 -534.49)"/><path class="cls-68" d="M944.41,541.36H944a1.21,1.21,0,0,1,.48-1.17Z" transform="translate(-941.44 -534.49)"/><path class="cls-69" d="M945.64,541.69c-.48-.12-.48-.37-.53-.63C945.58,541.08,945.44,541.41,945.64,541.69Z" transform="translate(-941.44 -534.49)"/></svg>