<?xml version="1.0" encoding="UTF-8"?>
<svg width="95px" height="25px" viewBox="0 0 95 25" version="1.1" xmlns="http://www.w3.org/2000/svg" xmlns:xlink="http://www.w3.org/1999/xlink">
    <!-- Generator: Sketch 55.2 (78181) - https://sketchapp.com -->
    <title>gr_forbes</title>
    <desc>Created with Sketch.</desc>
    <g id="Page-1" stroke="none" stroke-width="1" fill="none" fill-rule="evenodd">
        <g id="gr_forbes" transform="translate(-33.000000, -28.000000)">
            <path d="M56.529677,52.5642866 C54.878777,52.3253866 53.434877,51.6306866 52.332177,50.5447866 C51.412477,49.6389866 50.816177,48.6429866 50.376577,47.2782866 C49.690277,45.1474866 49.690077,42.4078866 50.375877,40.3205866 C51.040677,38.2976866 52.537377,36.5368866 54.369177,35.6226866 C56.905977,34.3566566 60.476477,34.4361866 62.825977,35.8110666 C64.940477,37.0483966 66.221277,39.2469866 66.577677,42.2508866 C66.686477,43.1679866 66.615877,45.1051866 66.444577,45.9047866 C65.743177,49.1777866 63.700477,51.4640866 60.707777,52.3257866 C60.385277,52.4185866 59.885177,52.5272866 59.596577,52.5670866 C58.985577,52.6516866 57.120977,52.6498866 56.529677,52.5642866 Z M57.519377,51.3496866 C57.970077,51.5528866 58.794877,51.5416866 59.260977,51.3256866 C60.547177,50.7303866 61.236777,49.0170866 61.461577,45.8582866 C61.774877,41.4562866 61.048877,37.7821366 59.610277,36.4901066 C58.962577,35.9083366 57.955277,35.7178566 57.228277,36.0397866 C56.167877,36.5093966 55.486777,37.8996866 55.164377,40.2528866 C54.934777,41.9285866 54.958577,45.3484866 55.210577,46.8862866 C55.607977,49.3121866 56.401077,50.8453866 57.519377,51.3496866 Z M85.770277,52.5634866 C85.094877,52.4953866 83.030777,52.1538866 82.309777,51.9908866 L81.810977,51.8780866 L81.849877,49.2299866 C81.943577,42.8540866 81.955377,39.3734866 81.894677,35.9885466 C81.835277,32.6726466 81.818077,32.3220966 81.689377,31.8315566 C81.526377,31.2100466 81.291177,30.7765766 81.008277,30.5762866 C80.898377,30.4985166 80.599777,30.3882566 80.344677,30.3312566 C79.496977,30.1419366 79.542977,30.1722666 79.520377,29.7877966 C79.507377,29.5663166 79.531477,29.4199766 79.588477,29.3751066 C79.664877,29.3148566 86.618177,27.9963006 86.839577,28.0000078 C86.903277,28.0011066 86.912277,28.8849766 86.879677,31.9273366 C86.856477,34.0865766 86.853477,35.8532366 86.873077,35.8532366 C86.892477,35.8532366 87.146577,35.7438466 87.437677,35.6101666 C88.314877,35.2072266 89.123477,35.0323866 90.297877,34.9916366 C91.079677,34.9645566 91.441977,34.9815466 91.842977,35.0639966 C94.465777,35.6035366 96.406677,37.7377966 97.084977,40.8281866 C97.261877,41.6343866 97.327677,43.6380866 97.210277,44.6415866 C97.110177,45.4969866 96.824477,46.6494866 96.527277,47.3973866 C95.405377,50.2196866 92.998777,52.0607866 89.805877,52.5392866 C89.070477,52.6493866 86.760977,52.6632866 85.770277,52.5634866 Z M87.188177,51.3722866 C87.802677,51.4368866 88.492777,51.4143866 88.814677,51.3192866 C89.313877,51.1718866 89.952077,50.7208866 90.336477,50.2443866 C91.129277,49.2608866 91.698777,47.7388866 92.011877,45.7666866 C92.161677,44.8220866 92.181977,42.1677866 92.045077,41.4035866 C91.624977,39.0574866 90.815777,37.6240166 89.584177,37.0437266 C88.970877,36.7546966 88.105677,36.7189666 87.302077,36.9492366 L86.757477,37.1053866 L86.695777,39.2375866 C86.617977,41.9257866 86.744377,51.1140866 86.861077,51.2539866 C86.903377,51.3045866 87.050577,51.3578866 87.188177,51.3722866 Z M105.344377,52.5298866 C101.966677,51.9242866 99.551077,49.5428866 98.761777,46.0406866 C98.660277,45.5902866 98.615377,45.0861866 98.589877,44.1110866 C98.549577,42.5683866 98.675777,41.6107866 99.076277,40.4209866 C99.845177,38.1365866 101.223277,36.5177266 103.225077,35.5474866 C105.337877,34.5234366 108.226477,34.4563566 110.096377,35.3879466 C112.201677,36.4368366 113.440377,38.5311866 113.754677,41.5727866 C113.796977,41.9823866 113.821477,42.4696866 113.809177,42.6557866 L113.786777,42.9941866 L108.748577,43.0115866 L103.710377,43.0289866 L103.729577,43.6207866 C103.774077,44.9916866 104.070477,46.2043866 104.618877,47.2585866 C104.868177,47.7377866 105.066577,47.9989866 105.548577,48.4827866 C106.637377,49.5757866 107.720577,49.9988866 109.429377,49.9988866 C110.668277,49.9988866 111.559177,49.7530866 112.491077,49.1541866 C112.752077,48.9863866 113.016577,48.8491866 113.078677,48.8491866 C113.220977,48.8491866 113.548377,49.2681866 113.548377,49.4502866 C113.548377,49.7486866 112.571577,50.7104866 111.618777,51.3502866 C110.838477,51.8742866 109.600977,52.3489866 108.527877,52.5354866 C107.776377,52.6663866 106.088077,52.6632866 105.344377,52.5298866 Z M103.584077,41.6902866 C103.621177,41.7500866 106.673577,41.7101866 108.094877,41.6314866 L108.802877,41.5921866 L108.761777,40.5333866 C108.678277,38.3882866 108.256877,36.9391466 107.520477,36.2643066 C107.246077,36.0129066 106.877477,35.8543866 106.565177,35.853576 C106.487577,35.8533666 106.259277,35.9019066 106.057677,35.9613966 C105.764877,36.0479066 105.600977,36.1600666 105.241777,36.5198266 C104.573977,37.1886466 104.088777,38.2747866 103.785677,39.7790866 C103.659877,40.4031866 103.532877,41.6078866 103.584077,41.6902866 Z M118.961077,52.5955866 C117.748077,52.4662866 115.817677,52.0461866 115.174877,51.7714866 L114.860977,51.6373866 L114.818077,50.0909866 C114.794577,49.2405866 114.767477,48.1033866 114.757777,47.5640866 L114.740177,46.5834866 L114.928377,46.4937866 C115.031877,46.4444866 115.240677,46.3983866 115.392577,46.3913866 L115.668477,46.3785866 L115.903577,46.9539866 C116.820877,49.1984866 117.896677,50.4086866 119.301777,50.7767866 C119.837777,50.9172866 120.842877,50.9184866 121.239677,50.7791866 C122.351177,50.3890866 122.960677,49.5522866 122.965977,48.4092866 C122.972277,47.0554866 122.223877,46.4050866 119.396277,45.3069866 C117.644477,44.6266866 117.033377,44.2765866 116.305777,43.5361866 C115.520777,42.7373866 115.144077,41.8282866 115.073377,40.5618866 C114.987877,39.0316866 115.469577,37.7417266 116.536977,36.6425466 C117.611177,35.5363166 119.005677,34.9367366 120.905377,34.7644066 C122.578177,34.6126566 125.145977,34.9653766 126.491377,35.5317166 L126.736777,35.6350066 L126.780577,37.0132666 C126.804677,37.7713066 126.829577,38.7873866 126.835877,39.2713866 L126.847477,40.1512866 L126.517777,40.2729866 C125.996677,40.4653866 125.962377,40.4412866 125.672477,39.6775866 C124.859877,37.5370366 123.915777,36.5242266 122.444677,36.2148266 C121.548077,36.0262466 120.799177,36.2289666 120.254777,36.8075666 C119.830177,37.2589066 119.664477,37.6597566 119.624377,38.3328866 C119.580777,39.0620866 119.711877,39.4562866 120.160077,39.9438866 C120.712477,40.5447866 121.617477,41.0634866 123.420377,41.8125866 C125.628677,42.7298866 126.682177,43.5086866 127.254977,44.6469866 C127.626977,45.3862866 127.732277,45.9766866 127.694877,47.1132866 C127.666777,47.9660866 127.639377,48.1413866 127.444177,48.7138866 C126.807877,50.5807866 125.371577,51.8097866 123.152577,52.3860866 C122.400977,52.5812866 122.293677,52.5912866 120.799177,52.6076866 C119.937977,52.6168866 119.110777,52.6115866 118.961077,52.5955866 Z M33.090483,52.1887866 C33.033906,52.1660866 33.005378,51.9973866 33.005378,51.6851866 C33.005378,51.1241866 32.969498,51.1492866 34.060677,50.9480866 C34.897697,50.7936866 35.197057,50.6358866 35.566687,50.1540866 C36.283267,49.2199866 36.438157,47.4214866 36.439787,40.0159866 C36.441287,33.0613866 36.306487,31.5983766 35.565397,30.5234966 C35.236547,30.0466366 34.682417,29.7876566 33.754231,29.6771966 L33.039352,29.5921066 L33.019744,29.0372066 L33,28.4823676 L33.223995,28.4427026 C33.347227,28.4209066 37.675097,28.4117016 42.841677,28.4221926 L52.235377,28.4414166 L52.279277,28.7121676 C52.303577,28.8610766 52.343277,30.3885266 52.367677,32.1064366 L52.411977,35.2299666 L51.927677,35.3762366 C51.198677,35.5963566 51.202977,35.5990666 50.874977,34.7363166 C50.069477,32.6171466 49.145677,31.3960566 47.881677,30.7794266 C47.009877,30.3541366 46.606777,30.3027666 44.144777,30.3027666 L42.002227,30.3027666 L41.965257,30.6581266 C41.895947,31.3245166 41.786677,35.6112466 41.787427,37.6299766 L41.788167,39.6436866 L42.417947,39.6400866 C42.764357,39.6380866 43.447377,39.6127866 43.935777,39.5837866 C44.669977,39.5400866 44.888177,39.5013866 45.195377,39.3599866 C45.950077,39.0125866 46.463477,38.2481866 46.778077,37.0033866 L46.940477,36.3607566 L47.496177,36.3410566 L48.051877,36.3213666 L48.051877,44.4548866 L47.495977,44.4352866 L46.940077,44.4155866 L46.782277,43.7724866 C46.485777,42.5642866 45.915177,41.6993866 45.210077,41.3892866 C44.884477,41.2460866 44.078777,41.1646866 42.520067,41.1175866 L41.788167,41.0953866 L41.788167,42.6231866 C41.788167,44.2880866 41.880287,46.5403866 41.998277,47.7627866 C42.162767,49.4668866 42.600817,50.4083866 43.387377,50.7491866 C43.537577,50.8142866 44.012877,50.9198866 44.443477,50.9840866 C44.874077,51.0481866 45.280077,51.1281866 45.345577,51.1618866 C45.511777,51.2471866 45.521577,52.1296866 45.357077,52.1923866 C45.228277,52.2416866 33.21317,52.2379866 33.090483,52.1887866 Z M66.652377,52.1759866 C66.590277,52.1366866 66.569977,51.9805866 66.584277,51.6521866 L66.604777,51.1844866 L66.842977,51.1340866 C66.974077,51.1063866 67.255577,51.0511866 67.468577,51.0116866 C68.127877,50.8891866 68.506677,50.5334866 68.719877,49.8366866 C68.893577,49.2690866 68.970077,47.4531866 68.974077,43.8064866 C68.978977,39.3465866 68.885477,38.2932866 68.431877,37.6963066 C68.186077,37.3726866 68.008777,37.2807066 67.412277,37.1668566 C67.117877,37.1106666 66.808077,37.0504266 66.723877,37.0329666 C66.587477,37.0047366 66.570677,36.9605366 66.570677,36.6287966 C66.570677,36.3062666 66.591177,36.2479866 66.723877,36.1937066 C66.927577,36.1104466 73.672377,34.7700966 73.887877,34.7700966 L74.055977,34.7700966 L74.022977,35.7684866 C74.004777,36.3175766 73.975877,37.1171666 73.958577,37.5452966 L73.927177,38.3236866 L74.171477,37.8855866 C74.953677,36.4832766 75.830877,35.6126766 76.997377,35.0812566 C77.637677,34.7894566 78.064977,34.7024066 78.856077,34.7024066 C79.794277,34.7024066 80.732277,35.0067266 80.732277,35.3111866 C80.732277,35.5158766 79.079177,39.8581866 78.988077,39.8928866 C78.943577,39.9097866 78.620777,39.7871866 78.270777,39.6200866 C77.540777,39.2718866 76.855977,39.1016866 76.191277,39.1030866 C75.363377,39.1047866 74.438577,39.4079866 74.073477,39.7973866 C73.917277,39.9638866 73.916577,39.9738866 73.877777,42.4607866 C73.839377,44.9235866 73.921877,47.9276866 74.061177,49.1359866 C74.179877,50.1652866 74.454977,50.6719866 75.023177,50.9079866 C75.212677,50.9866866 76.411877,51.1500866 76.803277,51.1504866 C76.832977,51.1504866 76.848177,51.3865866 76.837277,51.6750866 L76.817377,52.1996866 L71.779277,52.2157866 C69.008077,52.2247866 66.701077,52.2068866 66.652377,52.1759866 Z" id="Shape" fill="#1D1C1C" fill-rule="nonzero"></path>
            <rect id="Rectangle" x="0" y="0" width="160" height="80"></rect>
        </g>
    </g>
</svg>