<svg width="24" height="24" viewBox="0 0 24 24" fill="none" xmlns="http://www.w3.org/2000/svg">
<circle cx="12" cy="12" r="11.5" stroke="#073937"/>
<path d="M18.5 12C18.5 15.2411 17.7326 18.1509 16.5179 20.2333C15.2959 22.3281 13.6813 23.5 12 23.5C10.3187 23.5 8.70406 22.3281 7.48214 20.2333C6.26739 18.1509 5.5 15.2411 5.5 12C5.5 8.7589 6.26739 5.84909 7.48214 3.76665C8.70406 1.67194 10.3187 0.5 12 0.5C13.6813 0.5 15.2959 1.67194 16.5179 3.76665C17.7326 5.84909 18.5 8.7589 18.5 12Z" stroke="#073937"/>
<line x1="12" y1="2.18557e-08" x2="12" y2="24" stroke="#073937"/>
<line x1="23" y1="16.5" x2="1.5" y2="16.5" stroke="#073937"/>
<line x1="23" y1="8.5" x2="1.5" y2="8.5" stroke="#073937"/>
</svg>
