<?xml version="1.0" encoding="UTF-8"?>
<svg width="98px" height="34px" viewBox="0 0 98 34" version="1.1" xmlns="http://www.w3.org/2000/svg" xmlns:xlink="http://www.w3.org/1999/xlink">
    <!-- Generator: Sketch 55.2 (78181) - https://sketchapp.com -->
    <title>gr_inc</title>
    <desc>Created with Sketch.</desc>
    <g id="Page-1" stroke="none" stroke-width="1" fill="none" fill-rule="evenodd">
        <g id="gr_inc" transform="translate(-31.000000, -23.000000)">
            <g id="Group" transform="translate(120.000000, 48.000000)"></g>
            <rect id="Rectangle" fill-opacity="0" fill="#D8D8D8" fill-rule="nonzero" x="0" y="0" width="160" height="80"></rect>
            <path d="M92.668433,49.3591058 L92.668433,56.4104374 L75.0149468,56.4104374 L75.0149468,49.11699 L78.3481156,49.11699 L78.3481156,48.8998374 C78.3478459,46.4213269 78.348655,43.9426374 78.3464972,41.4640374 C78.3458679,40.7384953 78.1859211,40.0577795 77.7445615,39.4668953 C77.2358606,38.7855532 76.5304404,38.4277479 75.7185688,38.2751953 C74.2502771,37.9992585 72.8761193,38.2179321 71.6735064,39.1591953 C70.576356,40.0177848 70.0082257,41.1794216 69.9842202,42.561969 C69.9466385,44.7220427 69.9746899,46.88319 69.9753193,49.0438006 C71.1177835,49.1065216 72.2487394,49.1065216 73.3931817,49.1065216 L73.3931817,56.4121374 L55.3403229,56.4121374 L55.3403229,49.1194953 L58.5869101,49.1194953 L58.5869101,38.16219 L55.339244,38.16219 L55.339244,30.8597327 L69.5819706,30.8597327 L69.5819706,35.8949269 C69.7940642,35.6664111 69.9632716,35.4990058 70.115756,35.3171953 C71.2217174,33.9989795 72.5135193,32.9198374 74.0767541,32.1886585 C75.1647339,31.6798932 76.3094459,31.3703232 77.4978532,31.2255548 C79.5082018,30.9807011 81.5078514,31.0259837 83.484844,31.4995142 C84.9299394,31.8456432 86.2577945,32.4383795 87.3734661,33.4537269 C88.5332826,34.5091585 89.2298018,35.8309532 89.5140917,37.3620269 C89.6433798,38.0581321 89.7111706,38.7643479 89.7168349,39.4725321 C89.7381431,42.5869321 89.7260055,45.7016006 89.7260954,48.816269 L89.7260954,49.0990058 L92.668433,49.0990058 L92.668433,49.3591058 Z M35.309024,30.8484321 L31,30.8484321 L31,23 L54.101567,23 L54.101567,30.8034 L49.7911853,30.8034 L49.7911853,49.1010637 L54.0988697,49.1010637 L54.0988697,56.4080216 L31.0041691,56.4080216 L31.0041691,49.1181532 L35.309024,49.1181532 L35.309024,30.8484321 Z" id="Shape" fill="#010101" fill-rule="nonzero"></path>
            <path d="M111.658046,42.6872321 L121.527725,41.6598953 C120.563639,35.4957848 116.961644,31.9857321 110.722101,31.1295764 C101.362831,29.8453874 95.577055,34.2116585 94.0455578,36.4375848 C92.5139706,38.6634216 91.748222,40.6325585 91.5781156,44.2282374 C91.4079193,47.8240058 93.6201119,51.077269 94.3858606,51.9333532 C95.1516092,52.7895269 98.6401394,56.9845006 107.48891,56.9845006 C116.337681,56.9845006 119.230569,53.5599848 120.677013,50.3923479 C121.244514,49.0796795 121.527725,47.9667164 121.527725,47.0534585 L111.828242,47.0534585 C111.544672,49.62189 110.098228,50.9060164 107.48891,50.9060164 C103.575024,50.9060164 103.064525,47.2247111 103.234631,44.2282374 C103.404828,41.2318532 103.149578,37.293669 107.318714,37.1224164 C110.098228,37.0083374 111.544672,38.8632164 111.658046,42.6872321 Z" id="Path" fill="#000000" fill-rule="nonzero"></path>
            <path d="M128.991074,52.3889532 C128.981119,54.6947795 127.123615,56.5467058 124.833651,56.5336917 C122.58055,56.5207585 120.736622,54.6377848 120.749082,52.3632742 C120.761886,50.0794585 122.621908,48.2371058 124.908275,48.2444875 C127.144294,48.25169 129,50.1356479 128.991074,52.3889532 L128.991074,52.3889532 Z" id="Path" fill="#010101" fill-rule="nonzero"></path>
        </g>
    </g>
</svg>