<svg id="Layer_1" data-name="Layer 1" xmlns="http://www.w3.org/2000/svg" viewBox="0 0 599.98 616.66"><defs><style>.cls-1{fill:#e6bb59;}</style></defs><title>realestate-logo-design</title><path class="cls-1" d="M871,338.91c7.56-14,15.43-27.75,23.85-41.21,2.81,4.63,5.83,9,10.79,11.74,2.76,1.56,5.75,2.51,8.48,4.11,11.08,6.5,21.77,13.61,32.95,19.93a45.89,45.89,0,0,0,6,2.44c6,2.35,7.15,5.4,4.33,11.26-.29.6-.69,1.11-.51,1.82-5.36,10.68-11.53,20.88-17.79,31-3.62-2.14-3.44-7.43.38-10,.37-.25.93-.2.65-.88a1,1,0,0,0-1.31-.25c-5.62,2.7-7.69,2.29-11.74-1.9-3.66-3.78-7.37-7-13.49-6.39-3.53.38-6.43-3-8.64-5.36a14,14,0,0,0-7.84-4.47,24.64,24.64,0,0,1-4.16-1.68c-3.14-1.3-5-2.95-1.08-5.74a4.54,4.54,0,0,0-3.79.05c-1,.3-2.11,1-2.89.51-4.49-2.56-9-4.94-14.39-4.53Z" transform="translate(-659.99 -163.45)"/><path class="cls-1" d="M847.92,378.81A215.08,215.08,0,0,1,860,358c3.58-2.33,6.56-3.1,8,2.39.44,1.71,2.55,2.51,3.85,3.78,1.51,1.48.24,3.59,1.31,5.05,1.57.6,2-.92,3-1.38,2.75-1.3,5.85-1.82,7.67.89,3.34,5,8.72,6.31,13.56,8.62,2.68,1.27,5.64,2,7.79,4.23a38.25,38.25,0,0,0,20.45,11.2c4.45.9,4.7,1.94,1.82,5.31-.92,1.07-1.28,1.82-.46,3-5.84,11-12,21.76-18.65,32.25-3.5-6.14-9.87-9-15.39-12.5a149,149,0,0,0-18.42-10.36c-7.78-3.46-14.14-9-21.6-12.84-7-3.58-10-8.44-5.47-16.36C847.82,380.44,847.52,379.55,847.92,378.81Z" transform="translate(-659.99 -163.45)"/><path class="cls-1" d="M805.89,451.71c5.83-11.19,12.22-22,18.85-32.78,2.69-1.84,6.83-.28,8.88-3.89.31-.55,1.79.44,2.55,1.09a11.27,11.27,0,0,1,3.68,4.66c1.4,4,3.69,5.26,8,4.29,5.08-1.15,7.8,3.77,11.76,5.61.81.38.61,1.47.29,2.27-1.12,2.81.69,4,2.79,4.92,4.3,1.82,8.09,5.26,12.07,6.58,5.19,1.73,9.15,7.58,16.06,5,3.55-1.3,5.65,1.49,5,5.47q-11.5,20-23,40c-3.37-.64-3.58-2.42-1.8-4.95.94-1.33,2.61-2.08,3.21-4.22A13.68,13.68,0,0,1,864,479.81c-1.09-1.47-2.91-1.34-4.62-1.08-5.81.9-9.88-1.49-12.63-6.58a17.48,17.48,0,0,0-7-6.9c-4.84-2.65-8.89-6.61-14.75-7.74-3.1-.6-5.27-4.37-8.83-5.12-1.5-.75-1.91-6.64-4.77-1C808,455.05,807.26,455.09,805.89,451.71Z" transform="translate(-659.99 -163.45)"/><path class="cls-1" d="M771,512c6.13-11.61,12.78-22.91,19.64-34.09,1.56-1.54,2.81-1.3,4,.55a7.87,7.87,0,0,0,6.07,3.78c3.83.49,5.88,4,9.13,5.67,8,4.18,15.66,9.5,24.2,12.29,8.06,2.63,12.33,10,19.71,13.17,1.24.52,2.14,1.26,3.58.8,2.68-.85,2.57,1.11,2.63,2.81-4.94,9.57-10.37,18.86-16.1,28-2.15.46-3.37,1.9-4.31,3.79-.54,1.12-1,2.78-2.78,2.15-1.54-.54-2.72-1.82-1.92-3.46,1.42-2.9-.94-3.19-2.46-3.67-2.77-.89-4.86-3.45-7.22-4.08-6.19-1.63-10.19-6.5-15.6-9.23-4.27-2.15-9.42-3.41-12.29-8-1.72-2.72-5.51-2.1-7.45-4.56,1,1.13,2.32,2.22,1.39,3.78s-2.72,1.25-4,.52c-3.31-1.81-7.4-2.26-8.4-7.45-.67-3.47-4.46-2.75-7.34-1.71-.09,0-.28-.14-.4-.25S770.81,512.33,771,512Z" transform="translate(-659.99 -163.45)"/><path class="cls-1" d="M771,512a18.06,18.06,0,0,1,7.15-.41c2.46.25,2.72.66,2.24,2.91-.54,2.53,7,8.23,9.37,7.27,1.51-.61.81-1.57,0-2.24-1.3-1.11-3.4-1.51-3.29-5.21,3.8,4.47,10,3.46,12.5,8.65a5.07,5.07,0,0,0,2.53,2.28c6,3,13.16,4.29,16.86,10.93.51.93,1.47.17,2.25.09,1-.09,2.41-.33,2.84.17,3.46,4.11,8.43,5.57,12.94,7.86,1.65.84,2.17,2.32-.08,3.15-1.15.41-1.33.8-.65,1.62a2.88,2.88,0,0,0,1.53,1.13c.93.12.63-1,1-1.42,1.41-1.94,1.13-6.41,5.62-3.82-1.33,2.66-2.65,5.33-4,8l-19.06,32c-3.72-2.58.6-4.37.29-7.23-3.16.9-5.77-1.2-8.33-3-6.25-4.39-13.61-7-19.45-12a8.65,8.65,0,0,0-2.65-1.36c-6.11-2.32-6.79-3.43-5.63-10-3.61,4.77-6.52,3.27-10.4.75-4.38-2.84-9-5.69-14.17-7.09-1.52-.42-2.49-1.43-3.7-2.16-2.13,1.52-2.17,5.18-5.58,5.17-.12,0-.25-.19-.35-.32s-.13-.54.12-.86c5.83-10.29,11.54-20.66,17.64-30.8C769.38,514.71,769.55,512.89,771,512Z" transform="translate(-659.99 -163.45)"/><path class="cls-1" d="M859.94,517l-1.27-2c-5.81,4.3-6.78-4.24-11.3-4.35a5.75,5.75,0,0,1-5.62-5.41c-.06-1.5-2.13-1.78-3.17-2-6.42-1.32-11.88-4.93-17.66-7.59-5.1-2.35-10.78-4.82-14.72-8.26-3.67-3.21-8.51-3.09-11.61-6.57-1-1.12-.67-4.67-3.92-2.87,4.76-8.91,9.67-17.74,15.22-26.19,2.35,4.42,3.37-.85,5.14-.7l.5.45c.79,2.62,2.09,2.89,3.89.84L816,452c3.25-.45,5.86.52,7.68,3.36.34.54.95,1.4,1.33,1.35,7-1,10.64,5.15,15.84,7.78a15.23,15.23,0,0,1,7.75,8.57,8.08,8.08,0,0,0,9.91,4.54c3.61-1.16,6-.45,7.85,2.93a6.41,6.41,0,0,0,6.59,3.53c1.07-.09,2.94-1,3.24,1,.2,1.26-.64,2.34-1.77,3.3-2,1.67-5.75,3.21-1.68,6.54C868.76,502.43,864.64,509.87,859.94,517Z" transform="translate(-659.99 -163.45)"/><path class="cls-1" d="M1137.7,449.06l22,38c-3.42,1.54-7,2.68-10.47,4.14a44.58,44.58,0,0,0-8.58,4.84c-5.52,3.92-11.12,7.79-17.78,9.66-.8.23-1.91.38-2.24,1-2.74,5-8.53,5.48-12.56,8.55a13.19,13.19,0,0,1-7.32,2.86c-4.93.25-8.56,2.2-10.38,7-1.9.72-1.54-1.35-2.39-1.93l-12-22c.56-1.44-.17-2.38-1-3.57-1.9-2.75-2.16-4.77,1.53-7.18,3.92-2.56,8.4-2.9,12.34-5,7.1-3.71,13.41-8.61,20.11-12.92a17.35,17.35,0,0,1,6.34-2.45c4.78-.93,8.55-4.11,12.09-7.35,1.22-1.11,2.17-2.51,3.51-3.52s4.22-1.61,1.17-4.07c-.89-.72-.51-1.93.47-2.53C1134.26,451.49,1135.28,449.23,1137.7,449.06Z" transform="translate(-659.99 -163.45)"/><path class="cls-1" d="M1056.85,309.06c5.7,9.14,11.13,18.43,16.09,28,1.12,3.13.37,6.36-2.71,6.92-5.8,1.05-9,5.9-13.9,8.19a28.07,28.07,0,0,0-8.94,6.25c-.23.25-.48.57-.77.62-6.46,1.11-12,4.28-17.62,7.41-1.76,1-4.07.76-4.8,3.32a2.19,2.19,0,0,1-2,1.26c-5,.42-7.88,3.76-10.47,7.59-1.16,1.73-2.34,3.91-5.14,2.56-5.22-8.4-10.29-16.89-14.75-25.72,1.44-5,4-9.37,9.38-10.13,5.53-.79,9.46-4,13.29-7.24,5.36-4.5,11.35-8.93,17.33-11.22,6.59-2.53,11.58-6.65,17.26-10.1,1.13-.69,2.4-1.22,3-2.54.66-1.53,1.16-3.51,3.4-2.57s1,3,.81,4.94c.73-1.43,1.89-2.29.66-3.85C1056.15,311.78,1054.09,310.29,1056.85,309.06Z" transform="translate(-659.99 -163.45)"/><path class="cls-1" d="M895.8,455c-1.37-4.71-4.28-5.78-8.54-3.61a2.76,2.76,0,0,1-2.38.09,73.27,73.27,0,0,1-10.5-5.48c-4.17-2.39-8.18-5.25-12.73-7.14-3.68-1.53-5.58-3.66-2.18-7.3-1.55-.72-3.24-1-4.16-2-3-3.33-6.34-4.26-10.67-2.67-2.16.78-4.08.06-4.69-2.89-.74-3.51-3.22-6-6.36-8.58-.85,7-5.59,3.15-8.85,3.58,7.36-13.58,15-27,23.18-40.12,1.63,2.1-.09,4.23-.35,6.13-.8,5.79.19,7.67,5.24,11.15a58.54,58.54,0,0,0,13,7,3.27,3.27,0,0,1,2.25,3c.14,1.13.79,2.05,1.91,1.86,3.48-.59,5.41,2.05,8.06,3.23,4.72,2.12,8.6,5.69,13.4,7.39,6.25,2.2,9.92,8.17,16.13,10.35,2.45.86,0,3,.71,4.37h0c-2.42-.14-1.91,1.29-1.46,2.7Z" transform="translate(-659.99 -163.45)"/><path class="cls-1" d="M1107,396a252.5,252.5,0,0,1,14.86,26c-.59,2.5-.59,2.5-2.93,3.31,1.93.87,5-.48,5.34,2.44.25,2.27-2.06,1.37-3.34,1.69-3.55-.09-6.46,1.56-9.09,3.63-3.36,2.65-6.2,6.09-11,6.39a3.62,3.62,0,0,0-2.35,1.74c-.61.78-1.16,2-2,2.14-6.61,1.09-10.76,6.63-16.63,9a19.27,19.27,0,0,0-3.9,2.17c-1.91,1.32-3.72,3.48-5.83,3.7-5.1.52-10,.13-13.53,5.41-1.54,2.3-2-2.16-3.75-2.43a158.69,158.69,0,0,1-11-19c-.12-1.37-.35-2.67-1.86-3.24v0c-1.16-2.32.59-2.37,2.08-2.69,10.93-2.31,20.18-8.06,29.18-14.32.67-.47,1.19-1.26,2-1.44,11.76-2.63,19.22-12.54,29.61-17.51,1.8-.86,3.4-2.06,2.18-4.69C1104.4,396.9,1105.12,395.75,1107,396Z" transform="translate(-659.99 -163.45)"/><path class="cls-1" d="M1056.85,309.06c-1,3.34,2.84,4.87,2.78,8-1.46-.55-3.18-1.22-2.66,1.67-1.32-.58-1-1.8-1.36-2.66-.53-1.21,1.43-3.4-.89-3.74-2.15-.31-.65,2-1.31,3-1.6,2.47-4.51,2.54-6.6,4.17-4.08,3.2-7.09,8.42-13.81,7.35-2.4-.37-3.67,3.22-6.08,4.57-6.37,3.58-12.23,8.08-18.13,12.43a11,11,0,0,1-5.27,2.29c-3.6.53-7.63.87-8.24,6-.2,1.7-3.68.73-3.47,3.33-6.09-9.54-11.71-19.35-17-29.35,2.2.29.93-3,3.13-2.93s4.18,1.08,6.39.67c1.31-.24,2.8-.29,3.73-1.22,4.56-4.6,11.22-6.06,15.76-10.68.95-1,2.37-1.13,3.58-1.65,4.57-1.95,9.2-3.79,12.52-7.8,1.31-1.59,3.44-1.91,5.17-2.84,3.85-2.07,8-3.33,11.46-6.43,3.16-2.85,7.38-1.77,11.13-.1Q1052.26,301.09,1056.85,309.06Z" transform="translate(-659.99 -163.45)"/><path class="cls-1" d="M926.92,401c-1.18-.86-3-2.43-1.15-3.25,6.8-2.92-1.52-2.84-.73-4.42-7.78-.31-13.95-4.21-19.09-9.48s-12.52-5.79-18.24-9.7c-1.47-1-3.07-1.34-4-3.31-1.74-3.77-5.3-4-7.85-.71-.75,1-1.41,2.18-2.69,1.27-1.06-.75-3.22-1.65-2.11-3.26,1.92-2.78-.34-3.23-1.72-4.58s-4.48-2-3.19-5.22c.05-.15-1.17-2.54-2.86-.68-.74.82-2.09,2-3.34.28a174.67,174.67,0,0,1,11-19c1.42,1.32,2.36-.36,3.54-.57,2.68-.48,5.2-.9,6.87,2.21,1.41,2.63,3.7,3.13,6.34,1.62a8.39,8.39,0,0,1,1.36-.63c2.41-.86,4.87,0,5.31,2.12.51,2.49-2.91.35-3.92,2.75,3.08,1.68,6.21,3.9,10.21,3.77,2-.06,3.09.09,3.45,2.34.5,3.19,4.22,2.87,5.83,5,1.92,2.47,4.06,3.3,6.68.9.28-.26,1.31-.27,1.38-.11,1.77,3.88,6.92,2.93,9,6.62,3,5.17,6.14,5.66,11.12,2.67,1-.59,2.2-2,3.32-.11.56.95-.47,2.57-2,3.28-2.18,1-2.46,6.44-.48,9.31A225.12,225.12,0,0,1,926.92,401Z" transform="translate(-659.99 -163.45)"/><path class="cls-1" d="M1084.65,357.1A221.14,221.14,0,0,1,1096,377c1.8,5.21,1.64,5.49-4.26,7.64-2.19.79-3.77,2.55-5.75,3.73-5.77,3.43-11.87,6.26-17.64,9.72-7.62,4.57-13.95,11.53-23.16,13.36-1,.2-2.14.53-2.55,1.41-1.77,3.79-5.23,4.25-8.7,5.55s-5.12-.18-7.06-2.2a174.28,174.28,0,0,1-11-19c-.4-1.47,0-3,1.47-3.06,1.75,0,2.21,1.5,1.92,3a7.8,7.8,0,0,1,2.62-2.82c7.73-5.1,15.29-10.33,23.74-14.39a190.46,190.46,0,0,0,19.27-10.79C1071.4,365,1077.47,360.11,1084.65,357.1Z" transform="translate(-659.99 -163.45)"/><path class="cls-1" d="M1026.89,416.22c5,2.69,10.45.81,14.34-4,2.14-2.65,6.12-2.73,9.23-4,1.48-.62,3.59-.57,4.47-1.86,4.84-7,13.48-8.48,19.71-13.61a31.8,31.8,0,0,1,11.85-5.74,4,4,0,0,0,2.58-2.1,4.89,4.89,0,0,1,1.58-1.88c5.19-2.74,5.2-2.71,5.36-6a170,170,0,0,1,11,19c-.77.36-1.86,1.33-1.37,1.7,4.87,3.64.47,4.44-1.7,6-7.94,5.6-16.66,10.08-23.9,16.69a1,1,0,0,1-.41.27c-12.17,2.54-20.62,12.62-32.46,16-2.33.66-5.57-.73-7.15,2.32A237.72,237.72,0,0,1,1026.89,416.22Z" transform="translate(-659.99 -163.45)"/><path class="cls-1" d="M1047.69,293.11c-.8-.28-.93,4.16-2.33.29-.42-1.18-8.31-.62-8.58.72-1,4.93-6,3.21-8.72,5.63-2.52,2.27-6.54,2.38-9.14,5.81-2,2.59-6.14,3.52-9.33,5.19-2.66,1.38-6.26,1.42-7.25,5.18a1.48,1.48,0,0,1-1.16.82c-5.32-.48-7.91,3.94-11.45,6.49-4.15,3-8.26,2-12.77,1.22l3.31,2.17-5.45-.54c-1.22-.69-1.18-2.56-2.74-2.94-.76-1-.52-2.11-.49-3.21.22-4.42-.28-8.86.34-13.27.59-1.74.68-3.61,1.34-5.33,1.45-1.52,1.13-4.17,3.2-5.31,1.87.85,1.36,2.52,1.56,4,.12-1.79.93-3.27,2.55-3.62,5.73-1.26,9.47-5.82,14.41-8.37,3.22-1.66,6-4.21,10-4.2,1.94,0,3.39-1.33,4.7-2.6,6.55-6.37,15.14-9.73,22.31-15.18Z" transform="translate(-659.99 -163.45)"/><path class="cls-1" d="M956.82,349c-.81-.68-.25-1.36-.16-2.16.72-6.93,2.89-6.91-5-10.12-6.82-2.79-13-6.89-19.41-10.59-8.11-4.69-15.65-10.31-24.33-14.18-6.05-2.7-12.47-6.11-13.15-14.25a108.88,108.88,0,0,1,9.11-15.82,6.88,6.88,0,0,1,6.16,1.28c9,6.78,20,10.42,28.18,18.44,2.35,2.3,6.25,1.39,9.25,3.19,4,2.38,7.58,5.31,11.57,7.68,1.95,1.15,3.59,2.31,5.93,1.56,1.6-.52,3,.23,2.82,1.75-.43,3.64,2.09,6.15,3,9.24A262.43,262.43,0,0,1,956.82,349Z" transform="translate(-659.99 -163.45)"/><path class="cls-1" d="M1084.65,357.1c-3.33,2.69-6.28,6.3-10.07,7.85-6,2.43-10.29,7.46-16,9.62-7.08,2.68-12.15,9.53-20.39,9.5-.33,0-.86,0-1,.18-3.7,7.48-13.52,7.09-17.67,14.07l-2.08-4.06-1.6,3a136.7,136.7,0,0,1-9.33-16.06c2.74.08,3.5-2.28,4.66-4,2.59-3.81,5.22-7.41,10.53-7.18a3,3,0,0,0,1-.11c.16-7.11,7.88-3,10.56-7.15,1.76-2.71,5.67-4,9.38-3.7,4.52.35,6.15-4,9.22-5.92,3.82-2.39,9.32-3,11.16-8.28.18-.52,1.77-.79,2.7-.77,4.82.07,6.74-2.71,7.22-7Z" transform="translate(-659.99 -163.45)"/><path class="cls-1" d="M970.85,325c-3.78-2.33-4.75-5.84-3.68-10.6-6.86,4.31-9.75-2.24-13.9-4.35s-7.67-5.94-12.9-6c-1.33,0-2.51,0-3.5-1.33-5.46-7.15-14-9.91-21.3-14.39-3.72-2.3-7-5.78-11.65-6.44a242.26,242.26,0,0,1,13.94-24.09c.68.1,1.55.4,1.64,1,1,6.14,6.3,7.63,10.72,9.86,4.07,2.05,6.63,6,10.68,7.95a2.92,2.92,0,0,1,1.58,2.39q.75,6.27,6.85,4.6a3.18,3.18,0,0,1,2.43.22c8.37,5.09,19.36,7.36,21.16,19.57-.47,5.91-.92,11.82,0,17.72l-.87,2.09Z" transform="translate(-659.99 -163.45)"/><path class="cls-1" d="M1137.7,449.06a13.42,13.42,0,0,1-5.37,4.86c.54,2,3.25,1.49,4,3.71-6.81,1.72-9.68,8.63-15.79,11.82-3,1.55-5.87,1-8.34,2.22-3.65,1.76-6.58,5-10.16,6.92-6.3,3.43-11.23,9.48-19.26,9.7-3.17.08-4.7,4.08-8.14,4.45-.93.1.07,1.35.12,2.08.16,2.77,3.14,3.72,3.93,6.05-.89,1.36-2-1.55-2.83.28Q1068.35,489.42,1062,477c.92-3.29.92-3.29,6.39-2.14,5.48-1.47,9.89-4.81,14.24-8.2,1.31-1,2.34-2.49,4.05-2.78,9.07-1.52,16.1-6.93,23.2-12.15,3.84-2.83,7.91-5.44,11.75-8.21A17.17,17.17,0,0,1,1133,441Z" transform="translate(-659.99 -163.45)"/><path class="cls-1" d="M1068,475c-1.58,1.94-5.15-2.06-6,2a115.76,115.76,0,0,1-9.1-15.8c2.19-2.54,1.7,4.53,4.33,1.16,1.33-1.7,2.87-2.94,2.37-5.53-.19-1,1.77-1.09,2.46-.61,6,4.15,9.42-1.62,14.11-3,6.67-2,9.85-10,17.61-9.34a.57.57,0,0,0,.46-.14c3.8-6.38,12.44-5.65,16.73-11.43,1.17-1.57,2.56-3.51,5.29-2.74.79.23.9-.15,0-2.86,1.77,0,2.71,3,4.72,1.3,1.72,1.64,4.48,2.11,5.34,4.72a11.14,11.14,0,0,1-.4,2c-.36,1.19.12,3.38-1.51,3.26-6-.44-10.51,3.63-15.55,5.5a43.4,43.4,0,0,0-16.76,11.12c-1.95,2.14-4.09,3.9-7,4.52-2,.45-3.48,1.79-5.11,2.94-3.6,2.56-6.84,5.86-11.64,6.23-1.33.11-2.87.32-3.34,1.74-.66,2,1.54,1.69,2.42,2.44S1068.72,474,1068,475Z" transform="translate(-659.99 -163.45)"/><path class="cls-1" d="M1175.27,770.89c0-13.42-.25-26.85-.07-40.27.06-3.86-.93-5.28-4.92-4.93s-8.29-.13-12.42.14-5.17-1.23-3.93-4.9h0a207.48,207.48,0,0,1,29-.1h1a64.44,64.44,0,0,1,15,0h1c2.21,0,2.79,1.25,2.54,3.25s-1.65,1.71-3,1.71c-4.64,0-9.3.21-13.92-.08-3.75-.24-5.08.76-5,4.82.29,14.25.16,28.5.13,42.76,0,1.6.52,3.31-.48,4.83a2.83,2.83,0,0,1-1.22-1.38c-1.39-8.33-.09-16.71-.45-25.06-.11-2.46,0-4.92-.08-7.38-.64-4.77,1.06-9.36,1.1-14.19-.4.72-.09,1.38-.14,2-.12,1.45.28,3.56-1.63,3.63-2.45.1-1-2.22-1.3-3.43a9,9,0,0,1,.06-3.46c0-.66-1.13-.08-.46-.12.08,0,.13,0,.13.16.42,7.37,1.77,14.7,1.13,22.13-.51,6.34.86,12.73-.65,19A1.38,1.38,0,0,1,1175.27,770.89Z" transform="translate(-659.99 -163.45)"/><path class="cls-1" d="M860.2,721.82c1.08,10.25.24,20.53.44,30.79.12,6,.16,12-.07,17.95-.11,2.79.65,3.69,3.51,3.64,9-.17,17.95-.13,26.92,0,1.82,0,4.79-1.31,4.74,2.46,0,3.47-2.79,2.13-4.44,2.14-10.64.11-21.28,0-31.92.13-3,0-4.4-.45-4.36-4,.17-16.78,0-33.57,0-50.36,0-1.56-.58-3.49,2-3.76h1c.71.33,1.79-.16,2.15,1-1.68,1.39-3.33,2.8-2.7,5.37a239.28,239.28,0,0,1-1.06,30.29c.11-2.62,0-5.26.32-7.87A1.69,1.69,0,0,1,858.4,748c1.12,0,1.08,1,1.09,1.83,0,4.12,0,8.23,0,11.48,1-8-1.52-16.74-1-25.6C859.31,731.1,857.14,726.14,860.2,721.82Z" transform="translate(-659.99 -163.45)"/><path class="cls-1" d="M1012,537.84c-10.1-.1-20.2-.18-30.3-.33-1.6,0-3.3.58-4.81-.5-.81-8-.17-16.09-.35-24.13a1.11,1.11,0,0,1,1.12-1.14c1.22.62,1.44,1.8,1.64,3,.16,1.91,0,3.83.07,5.74-.45,3.89,1.51,5,5,6.84,8.68,4.58,18.59,2.91,27.23,6.82a5,5,0,0,0,6.84-2.11,1.34,1.34,0,0,1,1.38,0c-.08,2,1.17,4.27-1.15,5.85A16.34,16.34,0,0,0,1012,537.84Z" transform="translate(-659.99 -163.45)"/><path class="cls-1" d="M660.23,752.89c-.06-9.6,0-19.2-.24-28.8,0-2.43.85-3.29,3.07-3.27h1c7.23.7,14.57-.67,21.73,1,3.77.88,7.77,1.5,10.2,5.13-.56,2.34-2.15,3.3-4.45,3.32-8.09-3.78-16.5-3.67-25-2.11-2.07,2.51-.72,5.47-1.07,8.19a18.65,18.65,0,0,1-.43,3.94c-.28.8-.67,1.66-1.66,1.52-.65-.1-1-.81-1.13-1.49-.28-1.38-.13-2.82-.81-4.66,0-.14-.62,1.06-.14.6.18-.17.33-.07.38.32a55.21,55.21,0,0,1,.74,11.9C662.27,750.15,662.76,752.33,660.23,752.89Z" transform="translate(-659.99 -163.45)"/><path class="cls-1" d="M726.68,744.94c4.25,1.84,8.71.55,13.06.79,5.41.3,10.83.23,16.25.33,0,1.26,0,2.51,0,3.77l-28.71.19c-1.66,5-.32,10.09-.77,15.12-.11,1.27.33,3.68-.64,3.59-3.2-.32-1.47,1.58-1.54,2.65-.09,1.64,0,3.34-2.71,5.31-.13-9.53,0-18.26,0-27a19.65,19.65,0,0,0,.47-5.62,18.92,18.92,0,0,1,.31-4.81,2.57,2.57,0,0,1,2.44-1.6c2.12,1.63.81,4,1.34,6A5.71,5.71,0,0,0,726.68,744.94Z" transform="translate(-659.99 -163.45)"/><path class="cls-1" d="M726,744.86c-1.91-2.08-.56-4.63-1-6.92-1.8-2.11-.54-4.67-1-6.69-.24,2.38.66,5.18-1,7.68l0,5a.88.88,0,0,1-1.4-.56c.1-7.36-.56-14.72.35-22.07l1.07-.51,1.05.38c10.61.64,21.22.11,31.83.28,1.17,0,2.33,0,3.49,0,1.51,0,3.16-.13,3,2.15-.1,2-1.6,1.8-2.9,1.81-4.65,0-9.3,0-13.94,0-5.15,0-10.3.13-15.44,0-2.8-.1-3.72.8-3.73,3.66C726.44,734.31,727.12,739.61,726,744.86Z" transform="translate(-659.99 -163.45)"/><path class="cls-1" d="M726,744.86c0-5.31.14-10.63,0-15.94-.1-3,1-4.08,4-4,9.29.15,18.59.08,27.88,0,1.35,0,3.64.74,3.71-1.29.09-2.55-2.41-1.62-3.83-1.63-9.63-.09-19.26,0-28.89-.07-1.61,0-3.34.5-4.78-.74l4.94-.37c9.8.06,19.6.06,29.39.23,1.66,0,4.34-1.29,4.43,2.2.09,3.87-2.87,2.46-4.65,2.49-8.8.13-17.61.23-26.41,0-3.73-.11-5.33.68-5,4.8.35,4.79,0,9.62-.1,14.44A3.72,3.72,0,0,1,726,744.86Z" transform="translate(-659.99 -163.45)"/><path class="cls-1" d="M1115.83,726.66l2.34-5.29a.91.91,0,0,0,.8-.46c5.64,1,5.45,6.61,8,10.07.33,2.32,1.86,4.95-1.6,6.31-2-.39-2.86-2-3.75-3.62-.74-1.32-1.43-2.63-3.28-2.45C1116.59,730.19,1115.41,728.86,1115.83,726.66Z" transform="translate(-659.99 -163.45)"/><path class="cls-1" d="M1182.93,720.82l-29,.1c2.49-1.94,5.4-1,8.06-.89C1169,720.28,1176,718.91,1182.93,720.82Z" transform="translate(-659.99 -163.45)"/><path class="cls-1" d="M1198.93,720.82h-15A26.5,26.5,0,0,1,1198.93,720.82Z" transform="translate(-659.99 -163.45)"/><path class="cls-1" d="M906.8,436c.24-2.13-3.59-.17-2.67-2.39.82-2,2.64-1.37,4.13-.31Z" transform="translate(-659.99 -163.45)"/><path class="cls-1" d="M992.42,184.82c3.87-1.18,3.75.9,3.14,4.46C995,186.66,994.94,184.58,992.42,184.82Z" transform="translate(-659.99 -163.45)"/><path class="cls-1" d="M1034,760.08c-.12-1.52-.24-2.9-.35-4.27C1035,757.18,1035.34,758.56,1034,760.08Z" transform="translate(-659.99 -163.45)"/><path class="cls-1" d="M1040,439c2.84-.19,3.13,1.08,1.86,3.24A5.71,5.71,0,0,1,1040,439Z" transform="translate(-659.99 -163.45)"/><path class="cls-1" d="M1137.68,433.28a2.61,2.61,0,0,1,1.84,3.1C1138,435.81,1137.69,434.77,1137.68,433.28Z" transform="translate(-659.99 -163.45)"/><path class="cls-1" d="M829.32,777.29c.44.34,1,.53,1.08.86a.87.87,0,0,1-.92,1.23,1.29,1.29,0,0,1-.88-.89C828.55,778.17,829,777.78,829.32,777.29Z" transform="translate(-659.99 -163.45)"/><path class="cls-1" d="M751,546.81c3.13.3,3.18-2.57,3.94-4.28.84-1.89,1.51-2.27,3.1-1,4.38,3.39,9.51,5.37,14.53,7.48a17.58,17.58,0,0,1,3.63,2.51c2.31,1.71,4.54,4.67,6.63-.4.61-1.49,2.57-1.41,4-.54s1.23,1.9.15,2.88c-4.29,3.86.1,5.59,2.24,6.25,6.73,2.05,11.6,7.14,17.77,10.11a56.71,56.71,0,0,1,10.56,6.37,3.46,3.46,0,0,0,1.83.67c4.33.18,4.37.18,1.73,4.59-.73,1.21-1.49,2.25-.23,3.51,0,.33,0,.65,0,1,.09,1.44-.33,2.57-1.83,3.06-1.38,2.78-4.47,4.74-4.09,8.39-1.14,3.12-3.29,5.69-4.74,8.65-.61,1.24-1.47,2.77-3.43,1.9-.75-.89-.12-2.32-2.5-2.59-6.07-.68-10.25-5.75-15.78-8.06-6.24-2.6-12.56-5.35-17.24-10.62a3.34,3.34,0,0,0-1.71-1c-7.88-1.72-13.74-7.25-20.66-10.73-5.2-2.62-6.54-6-5.68-11.17a39.53,39.53,0,0,0,.79-4.85A67.68,67.68,0,0,1,751,546.81Z" transform="translate(-659.99 -163.45)"/><path class="cls-1" d="M744,558.87c.26.61.88,1.34.72,1.81-3,8.75,3.18,11.57,8.91,16,6.45,4.93,14.9,5.35,20.71,10.94,5.43,5.21,12.43,7.66,19.11,10.44,3.85,1.61,5.69,7,10.94,5.67.53-.13,2.74-.48,3.16-.94-.16,1.77-.31,3.54-.46,5.31a2.56,2.56,0,0,1-.45,2.61,1.46,1.46,0,0,1-1.16.56,3,3,0,0,1-1.54-1.28c-.66,1.7,1.4,2.69,1,4.26a43,43,0,0,1-9.24,15.18c-5.52,3-6,2.88-9.51-2-.93-1.29-2.28-1.21-3.55-1.39-5.84-.83-11.36-2.4-16-6.34-1.43-1.23-3.23-1.78-2.23-4.67.81-2.38-1.61-3.17-3.28-1.73-2.46,2.12-5,1.77-6.74,0-4.88-4.88-12.88-5.68-16.13-12.56a1.55,1.55,0,0,0-2.15-.65c-3,1.25-5.51-.28-8.13-1.17-1.36-.47-4.51.22-2.3-3.11.16-.25-2.62-.16-1.84-2.15a.63.63,0,0,1,.29-.72c1.15-1.2,3.37-1.76,2.43-4.17l.5-.83c-.36-.71,2.22.32.65-1.09q2.76-5.35,5.54-10.69Q738.64,567.53,744,558.87Z" transform="translate(-659.99 -163.45)"/><path class="cls-1" d="M972,302c-.15-.08-.4-.14-.43-.24-2.07-9.48-11.1-11.2-17.6-15.69-1.93-1.34-4.24-3-6.5-.13-.65.84-2,.43-2-.26.23-3.37-6.35-1.35-4.4-5.65.52-1.16.64-2.06-.37-2.48-6.46-2.71-10.29-9.67-17.78-10.83-2-.31-3.27-2.73-3.19-4.56.1-2-1.4-2.9-1.88-4.41,5.22-10.2,11-20.07,17.13-29.76,2.18-.75,3.42.78,4.7,2,1.8,1.77,3.68,3.34,6.27,3.82.65.12,1.61.32,1.74.82,1.08,4.05,2.57,5.91,7.73,5.12,3.34-.52,6.14,4.64,10.34,5.25,3.21.47,4.59,2.6,5.3,5.73a53.89,53.89,0,0,1,1.25,12.33c0,4.46-.49,9,.9,13.35.36,6.82.13,13.63.15,20.43C973.38,298.73,973.46,300.6,972,302Z" transform="translate(-659.99 -163.45)"/><path class="cls-1" d="M1096,537q-3.09-5.84-6.16-11.67c1.11-5.73,3.56-7.82,9.52-8.3,3.62-.3,7.25-.71,9.08-4.61.14-.29.49-.75.64-.71,7.64,1.87,9.06-8.62,16.67-8.16,3.43.21,7.71-3.11,10.56-5.89,5.18-5.07,12.45-6.35,17.74-10.86,2.33-2,3.67,2.59,5.61.3l8.08,14c.27,2.74-1.13,4.92-2.44,7.12a5,5,0,0,1-1.18.87c-6.64,2.13-12.4,6.16-18.85,8.71a5.43,5.43,0,0,0-2.49,1.6c-5.12,7.15-13.13,8.9-20.8,11.32a5.74,5.74,0,0,0-3.69,2.88c6.93.25,13.46.05,20,.13,2,0,4.06-.29,5.85.78,1.36.81,1.64,1.74-.43,2q-21.18,0-42.34,0c-1.46,0-3-.4-4.37.49l-.49.09Z" transform="translate(-659.99 -163.45)"/><path class="cls-1" d="M1165,508c-.21-2.76,2-4.58,2.77-6.94l8.12,13,10.89,20c-.2,1.47-.79,2.47-2.51,2.43-13.09-.3-26.19.61-39.27-.49-1.82-1.79-4.11-.91-6.18-1-6.65-.12-13.31,0-20-.07-1.09,0-2.63.56-3.16-.73-.72-1.79,1.23-2,2.19-2.74,4.35-3.19,9.61-4.2,14.65-5.4a9.65,9.65,0,0,0,5.55-3.79c3.09-3.88,6.9-6,11.56-7.8,3-1.17,6-3.36,9.2-4.77,2-.87,3.93-1.78,6.16-1.74l0,.35.28-.2Z" transform="translate(-659.99 -163.45)"/><path class="cls-1" d="M974,301c-.24,1.68.66,3.59-1,5-1.1-3.89-.5-7.87-.44-11.79.14-9.74-.49-19.47-.52-29.2.73-2.78.19-5.75,1.26-8.48,2.25-1.91,3.4-.57,3.54,1.58.17,2.94.54,5.9.68,8.88,0-.75,0-1.51-.08-2.28-1.12-8.65-.58-7.83,6.64-12.67s15.95-6.49,22.69-12c1.54-1.26,3.51-2.29,5.54-1.08,1.65,1,2.25-1,3.53-.9a34.13,34.13,0,0,1,5,9c1,4.5,1.73,9.07,2.69,13.58.25,1.15.5,2.52-.68,3.19s-1.77-.54-2.36-1.28c-1.1-1.39-2.55-2.11-3.75-.61-2.95,3.66-7.41,3.42-11.25,4.75-1.09.38-2.55.11-3.31,1-5.68,6.32-14.27,8.47-20.32,14.27-1.32,1.26-2.57,3.92-4.72,2.82-1.9-1-.19-3.54-.51-4.71C973.66,286.4,976.78,294.06,974,301Z" transform="translate(-659.99 -163.45)"/><path class="cls-1" d="M974,301c.39-7.65-1.53-15.55,2.77-22.91.13,2,.26,4,.46,7.11,6.41-9.42,17.59-11.06,24.44-18.93,1.68-1.94,6-1.73,9.12-2.19a5.61,5.61,0,0,0,3.76-1.89c4.16-4.56,4.74-4.43,8.63,2.16-1.51-6.55-3.25-11.8-2.31-17.31,3.91,6.2,8,12.29,11.08,19-1.85,4.6-6.5,6.32-10.21,8.09a25.22,25.22,0,0,0-8.59,6.29c-4.23,5-11.25,3.86-15.74,7.72-3.31,2.85-8.25,3.27-10.59,7.45-.29.52-1.07,1.15-1.57,1.1-4.69-.44-6.74,2.21-8,6.33-.15-2-.3-4-.45-6.2C975.3,298.05,976.84,301,974,301Z" transform="translate(-659.99 -163.45)"/><path class="cls-1" d="M972,275c-1.61-1.48-.9-3.42-1-5.17-.21-6.59.5-13.19-1.35-19.72-.63-2.22-1.33-3.46-3.64-3.69a10.58,10.58,0,0,1-6.34-2.44c-2.93-2.83-5.32-5.23-9.52-1.73-1.72,1.43-3.34,0-2.6-2.22,1.28-3.81-.25-4.8-3.82-5.38-3.84-.64-5.25-5.17-8.76-6.66a246.92,246.92,0,0,1,12.85-22.25c6.23.22,9,6.46,14.28,8.31.89.31,1.51,1.39,2.41,1.71,7.47,2.63,7.74,8.79,7.82,15.26.07,6.1-.8,12.25.86,18.29C973.23,257.94,972.72,266.49,972,275Z" transform="translate(-659.99 -163.45)"/><path class="cls-1" d="M1015.85,238.08c-1.15,1.21,0,6.54-4.42,1.91-1.95-2-4.79,1.43-6.5,3-2.2,2-4.12,3.27-7.23,3.25-2.44,0-4.6,1.64-6.58,3.19-1.69,1.31-3.36,3.18-5.29,3.57-7.41,1.48-8.84,6.24-7.86,12.73a5.18,5.18,0,0,1-.74,3.32c-.41-3.21-.88-6.42-1.21-9.64-.15-1.49.11-3.1-2-3.34-1.85-6.34-1.26-12.86-1.41-19.32.12-2.52-.23-5.07.46-7.55.63-1.32,1.43-1.92,2.45-.37.85,1.31.55,2.89.91,4.88,5-5.32,11.68-7.64,17.46-11.35.5-.33,1.58-.1,1.53-.9-.34-5.66.55-7,3.68-1.12.78-.49,1.15-1.53,2.23-1.58-.8-1-1.36-2.26.25-2.72,1.2-.35,1.68,1.38,2.64,2A204.88,204.88,0,0,1,1015.85,238.08Z" transform="translate(-659.99 -163.45)"/><path class="cls-1" d="M1068,475a1.93,1.93,0,0,0-1.83-2c-1.37-.17-3.51.4-3.45-1.76s1.55-4.13,3.71-4.08c6.33.14,10.16-4.1,14.48-7.58.64-.51,1.33-1.34,2-1.36,4.25-.15,6.3-3.56,9.35-5.6,6.67-4.45,12.27-11,21.15-11.85,1.9-.17,3.72-2,5.45-3.24,1.1-.8,2.37-2.16,3.47-1.39,4,2.82,1.61-1.68,2.64-2.16,2.32-.43,4.06.14,4.71,2.68.37,1.48,1.52,2.34,2.65,3.2L1133,441a8.27,8.27,0,0,0-4.47,2c-.52.41-1.2,1.36-1.45,1.25-6.17-2.64-7.71,4.22-11.85,5.86-4.67,1.84-8.68,5.24-12.63,8.54a22,22,0,0,1-9.2,4.52c-8.91,1.86-14.85,8.45-22,13.05C1069.16,477.65,1068,478.71,1068,475Z" transform="translate(-659.99 -163.45)"/><path class="cls-1" d="M974,228.06v8c-.75.33-1.22.1-1.43-.69-.31-20.88-.46-41.76-1-62.64-.06-2.92-.65-6,1.44-8.62,8,12.75,15.38,25.86,22.66,39-.13,2.35-1.86,3.49-3.69,3-5.29-1.3-8.54,1.85-11.66,5-1.6,1.62-3.57,1.85-5.52,3.28-.62-3.59-.15-6.66-.33-8.87-.83,4.92,1.13,10.6.76,16.34C975.15,224,975.73,226.29,974,228.06Z" transform="translate(-659.99 -163.45)"/><path class="cls-1" d="M974,228.06V202.25l1,0c0,2.66-.07,5.31,0,8,0,.91-.67,2.1.65,2.74.2-2.1,2.29-.28,3.53-2,2.86-3.89,6.27-8.3,12.6-5.83,1.31.51,2.93-.69,3.91-2A123.26,123.26,0,0,1,1004.2,218l-2.6-1.26c2.71,2.36-2.61,4.12-.34,6.54-2.37-1.14-3.6-3.08-4.65-5.23-1.84,2.13,1,3.3,1,5.41-2.59-.7-4.88-.49-6.16,2.33a2.78,2.78,0,0,1-2,1.16c-5.52.38-8.3,4.63-11.61,8.11-.59.63-1.11,1.31-2,1.16-1.18-.2-.69-1.28-.81-2C974.66,232.15,975.81,229.86,974,228.06Z" transform="translate(-659.99 -163.45)"/><path class="cls-1" d="M973.06,164.1l0,72a173.1,173.1,0,0,1,0,28q0,21,0,42l-.06,15c-2.08-6.25-.4-12.69-1-19q0-13.5,0-27t0-27V213c-1-10.25-.29-20.52-.43-30.78-.09-5.74-2.15-11.45-.34-17.23C972,163.17,972.19,163.07,973.06,164.1Z" transform="translate(-659.99 -163.45)"/><path class="cls-1" d="M971.2,165c1.27,1.42.77,3.16.78,4.76q0,21.63,0,43.25c-1.6-1.48-.93-3.41-.94-5.15q-.1-14,0-28c0-3.22-2.45-4.84-4.13-7Z" transform="translate(-659.99 -163.45)"/><path class="cls-1" d="M1126,433c-1.65-1.69-4-2.7-5-5l2.41.3c-.42-3-2.87-1-4.09-1.77-.88-.58-2.33-1.19-1.49-2.57.71-1.17,1.07-.16,1.9.33,1.69,1,.85-1.95,2.15-2.26a42.73,42.73,0,0,1,6,10C1127.4,432.72,1127,433.54,1126,433Z" transform="translate(-659.99 -163.45)"/><path class="cls-1" d="M1126,433l1.87-1q2.25,3.93,4.49,7.86c-1.6-.74-3.84-.54-3.76-3.43.06-2.16-2.55-1.36-3.6-2.45Z" transform="translate(-659.99 -163.45)"/><path class="cls-1" d="M723.9,593.7c1.46,2.59,3.08.13,4.65.06.37,2.29-2.57,1.89-2.85,3.69,4.28,0,8.27,3.59,12.72.7.45-.29,1.41.28,1.41,1,0,5.79,4.85,6.35,8.61,8,3.06,1.38,4.35,5,7.84,5.88,1.22.29,2.47,1.52,3.49-.12.74-1.18.84-3.38,2.88-2.46a10.2,10.2,0,0,1,4.62,3.61c1.39,2.42-2,1.2-2.52,2.54a30.76,30.76,0,0,0,20,8.29c1.49.06,3-.13,3.29,2.06.54,3.58,2.22,4.16,5.42,2,.59-.39,1.08-.82,1.64,0,1.3,4-1.79,5.75-4,7.93a12.6,12.6,0,0,1-2.39.46q-44.17,0-88.36,0a11.52,11.52,0,0,1-1.82-.53Z" transform="translate(-659.99 -163.45)"/><path class="cls-1" d="M806.11,610l1-1.92c2.37-1.51,2.92-4.2,4.1-6.46a9.32,9.32,0,0,1,3.76-4.25q20-4.38,39.93-8.75c1.61-.35,3.27-.48,4.9-.72a3.75,3.75,0,0,1,2.91-.23c1.42.49,4,.1,3.47,2.52-.43,2-2.57,1-3.84.68-3.78-1.05-7.36,1.69-10.4.8,3.41,2,7.41,4.5,12.26,5.12a4.78,4.78,0,0,1,3,1.71c3,3.45,5.88,6.78,11,3,1.07-.79,2.92.12,4.28.78.9.43,1.77,1.12,1.58,2.26s-1.18,1-2,1.07c-1.42.15-3.17-.18-3,2.17l-44,13.09c-1.83-.88-3.52.38-5.31.34-6.53-.17-12.41-2.92-18.46-4.84C808.5,615.5,808.14,611.89,806.11,610Z" transform="translate(-659.99 -163.45)"/><path class="cls-1" d="M879,607.77c-.33-.76-2-.9-1-2.3,1.42-2,3.37-1.32,5.28-1.18-2.48-.46-4.44-4.31-7.59.17-1.2,1.7-6.72-.54-8.23-3.33-1.38-2.55-3.07-3.45-5.31-3.52-5.33-.17-8.53-4.55-14-6.48,6.41.1,11.58-3.88,17.41-1-1.69-1.74-3.73-2.13-5.85-2.29a323.34,323.34,0,0,1,37-7c1.41-.48,2.82-.83,4.42.39-1.14,2.09-3.34,1.88-5.07,2.52-1,.39-2.53.44-2.57,1.91,0,1.06,1.13,1.53,2,2.07,3.8,2.44,8.25,3.51,12.15,5.75.58.33,1.24.5,1.82.81,1,.52,2.63.85,2.42,2.12-.28,1.77-2.15.79-3.19,1.15,2.08.48,3.63-1.17,5.5-1.6,2.58-.59,5.56-2.89,7.75.83Z" transform="translate(-659.99 -163.45)"/><path class="cls-1" d="M989,582.88l-45,9c-3-.3-3.12-3.79-5.74-5a68.48,68.48,0,0,0-10.48-4.12c-1.69-.44-3.82-1.44-3.66-3.48.12-1.68,2.12-2.41,3.77-2.74,2.45-.5-1.11-.4-.06-.7a323.87,323.87,0,0,1,36-5c1.95-1,4.21.23,6.15-.85l1.85-.14c1.23-.71,2.56-.37,3.86-.39a1.25,1.25,0,0,1,1.25.6c1.89,3.57,1.77,3.83,5.86,5.76,2.05,1,2.7,3.28,4.81,3.93C985.16,582.14,990.09,581.15,989,582.88Z" transform="translate(-659.99 -163.45)"/><path class="cls-1" d="M989,582.88c-1.94-2-4.31-.19-6.65-.38,1.1-2.49,3.16-.92,4.5-1.78-4.61-3.52-9-7.36-15.16-8.07.82-2.51,3.14-1,4.6-2.43l-4.44-.3,9.44-1.81c.83-1,1.76-.68,2.71-.23q15.32-1.47,30.64-2.93c1.31-.12,2.63-.06,4-.08a15.33,15.33,0,0,1,6.59-.1c-.7,2.37-2.57,1.27-3.51,1.77,5.8-.19,11.6-1.6,17.51-2.14,1.71-.15,4.12-1.31,4.59,1.13.33,1.69-2.11,2.22-3.61,2.84a3.69,3.69,0,0,1-2.48.13c.6.92,2.73.68,2.15,2.2-.65,1.71-2.23.5-3.16.78,1.19,1.41,4.75-1,5.33,2.46q-20.37,3.49-40.73,7C997.17,581.62,993.07,582.23,989,582.88Z" transform="translate(-659.99 -163.45)"/><path class="cls-1" d="M927.81,575.89c1.21.34,2.69-.45,3.93,1.21a6.69,6.69,0,0,0-6.65,2.55,5.32,5.32,0,0,0,4.56,2.58c4.74-.3,7.39,4.07,11.64,4.73,2.89.45-.42,4.48,2.69,4.92l-22,5c-3.16-2.23-6,.27-8.94.69-2,.29-4,1.55-6.45-.33l4.9-.46c-3.47-1.69-6.38-3.65-9.58-4.5s-5.75-3.17-8.84-4.29a2.52,2.52,0,0,1-1.91-2.6c.13-1.58,1.27-2.13,2.71-2.39,2.08-.38,4.13-.91,6.27-1.39-1-1-2.28-.43-3.36-.68A8.92,8.92,0,0,1,902,580c3.15.55,6.26-.81,9.15-.43-.5-.4-1.71.23-2.38-.69C915,577.05,921.46,576.8,927.81,575.89Z" transform="translate(-659.99 -163.45)"/><path class="cls-1" d="M1042,573.94c-2-1.58-4.68-1.26-7-2.36,1.11-1.3,2.78,0,4.14-1.11l-5.88-2c3-2.88,7.66.9,9.55-3.45-7.8,1.06-15.69,3.14-23.89,1.53,1.52-1.28,3.34-.09,5.58-1.32l-5.92-.41c2.4-1,4.92-.88,7.44-.79,7.18.79,14.22-1.08,21.37-.72-2.23.07-4.45.64-6.64-.49,7.14-1.33,14.39-1.32,21.59-2,1.94-.18,4,.16,5.8-.81h0l31.38-1.25c2.75-.76,5.48-.16,8.33.32-2.2,2.74-5.17,2.14-8.08,1.83a4.21,4.21,0,0,1-1-.19c.18.37.56.11.86.25a8.06,8.06,0,0,1,1.41.34,32,32,0,0,0,13.14.46c2.29-.37,5.3-1.36,6.73,2L1057.75,572C1052.5,572.63,1047.24,573.28,1042,573.94Z" transform="translate(-659.99 -163.45)"/><path class="cls-1" d="M1100.21,561.82a46.4,46.4,0,0,1-5.24-1.22l.12-.61h11.62l.06-.78-7.27-.37c.21-.25.42-.51.62-.77h0c14.3-.49,28.6-1,42.9-1.47s28.61-.91,42.93-1.28c1.44,0,3.95-.93,3.92,1.46,0,1.84-2.43,1.1-3.79,1.23q-30.57,2.91-61.13,5.71c-1.32.12-2.65.07-4,.11-2.8-1.61-5.8-1.11-8.61-.41a17.23,17.23,0,0,1-12.12-1.61,15,15,0,0,1,4.42-.29C1103.46,561.66,1101.65,561,1100.21,561.82Z" transform="translate(-659.99 -163.45)"/><path class="cls-1" d="M806.11,610c2.48,1,4.85,2.12,4.67,5.41,3.42-.38,6,3,9.32,2.31,1.8-.38,2.66-.07,3.65,1.33s1.42,2.06,3.48.34c1.28-1.07,5.09.89,7.77,1.49L791,637c1-2.81,3.59-4.83,4-7.93A81.93,81.93,0,0,0,804,614c.8-.91.35-2.59,1.88-3.05C806,610.6,806,610.29,806.11,610Z" transform="translate(-659.99 -163.45)"/><path class="cls-1" d="M1040.74,562.87c2,.43,4.22-.42,7.18,1-8-.47-14.87,2.81-21.91.16l3.63-.2c2.37-1,5,.23,7.33-.78Z" transform="translate(-659.99 -163.45)"/><path class="cls-1" d="M908.79,578.88l1.94.19c-2.82,1.18-5.55,3.22-8.71.93A15.21,15.21,0,0,1,908.79,578.88Z" transform="translate(-659.99 -163.45)"/><path class="cls-1" d="M726.62,588.81c2.6,2.44,2.58,2.47-2.43,4.17Z" transform="translate(-659.99 -163.45)"/><path class="cls-1" d="M819,589a5.08,5.08,0,0,1,1.83-3.06c2,1.48.22,3-.26,4.2C820.35,590.71,819.39,589.64,819,589Z" transform="translate(-659.99 -163.45)"/><path class="cls-1" d="M727.77,586.89c1,.46,2.21-1.06,3.06.33a1,1,0,0,1-.09.92c-1.24,1.31-2.39-.43-3.62-.16Z" transform="translate(-659.99 -163.45)"/><path class="cls-1" d="M819.05,591.72l3.91,1.73c-.24.38-.43,1-.73,1.09C820.91,594.77,820.28,593.8,819.05,591.72Z" transform="translate(-659.99 -163.45)"/><path class="cls-1" d="M1068.13,560.08h-5.94c2-.89,4.07-1.89,5.93,0Z" transform="translate(-659.99 -163.45)"/><path class="cls-1" d="M1037,563.1c-2.29,1.7-4.88.61-7.33.78C1032,562.84,1034.48,563,1037,563.1Z" transform="translate(-659.99 -163.45)"/><path class="cls-1" d="M1118.17,556.54a4.78,4.78,0,0,1-4.4-.11A4.72,4.72,0,0,1,1118.17,556.54Z" transform="translate(-659.99 -163.45)"/><path class="cls-1" d="M970,570.06c-1.86,1.68-4.08.67-6.15.85C965.78,569.89,967.88,570,970,570.06Z" transform="translate(-659.99 -163.45)"/><path class="cls-1" d="M1100.12,558.07l-4.73-.3c2.06-1.13,3.46-1.07,4.7.31Z" transform="translate(-659.99 -163.45)"/><path class="cls-1" d="M984,567.88l-2.71.23-1.25-.52c.14-.18.28-.52.43-.53C981.7,567,983,566.68,984,567.88Z" transform="translate(-659.99 -163.45)"/><path class="cls-1" d="M1168.14,554c.89.08,2.52.07,2.54.26.16,1.24-.93.55-1.49.66a3.42,3.42,0,0,1-1.28-.27Z" transform="translate(-659.99 -163.45)"/><path class="cls-1" d="M811,451c.18-1.66-.62-4.08,2.31-3.87,3.09.22,2.62,2.78,2.69,4.87C814,453.48,812.33,453.14,811,451Z" transform="translate(-659.99 -163.45)"/><path class="cls-1" d="M809.76,533.09c.43-.22.81-.57,1.21-.58.86,0,1,.66.81,1.27-.09.31-.61.5-.93.75Z" transform="translate(-659.99 -163.45)"/><path class="cls-1" d="M811,451a8.28,8.28,0,0,0,5,1c-.31,2.18-1.48,4.14-3.69,3.67S811.4,452.63,811,451Z" transform="translate(-659.99 -163.45)"/><path class="cls-1" d="M1047.46,440.27a8.59,8.59,0,0,1,0,5.72C1047.09,443.67,1045.38,442.47,1047.46,440.27Z" transform="translate(-659.99 -163.45)"/><path class="cls-1" d="M977.11,512q-.12,12.51-.23,25c-1.47-1.36-.71-3.12-.71-4.67-.08-12.75,0-25.51-.06-38.26l-.08.06c12-.59,24-.4,35.94-.09-.77,3-3.3,2.23-5.24,2.29-7.58.24-15.09-1.76-22.71-.59,10.44-1.69,19.89,2.28,29.72,4.66,6.33,1.53,6.11,5.26,5.72,9.86-1,3.24-3.38,2.48-5.68,1.92-8.69-2.11-17.47-3.83-26-6.6-3.09-1-6.32-2.52-8.8,1.3-.43.66-1.15.27-1.44-.49,0-2.4-.08-4.79,0-6.85C976.47,503.45,979.17,507.77,977.11,512Z" transform="translate(-659.99 -163.45)"/><path class="cls-1" d="M1019.82,480c-.24,2,1.29,4.23-.83,6-2.92-1.79-6.14-.55-9.21-.93-1.67-.22-3.72.65-4.78-1.53,1-2,2.91-1.14,4.35-1.25-10.8-1.53-21-6.13-31.85-7.41-.9-2.37-.38-4.82-.42-7.23.34-4.28,2.71-5.55,6.77-4.9,5.43.88,10.55,2.78,15.8,4.28,4.59,1.31,8.93,3.64,13.87,3.61.5,0,1.23.11,1.37.47,1,2.53,2.72,1.36,4.31,1C1020,474.61,1018.94,477.35,1019.82,480Z" transform="translate(-659.99 -163.45)"/><path class="cls-1" d="M925.18,464c-.06-5.56.07-11.13-.24-16.68-.21-3.69.67-5.6,4.75-4.8a7.39,7.39,0,0,0,2.36-.35c8.27-1.49,16.61-.31,24.92-.59,2.21-.07,4.58-.74,6.7.6L968,443c.26,1.71-1.12,2-2.17,2.06a117.44,117.44,0,0,1-25-.6c9.11.24,17.62,4.88,26.52,8.33,1.08,2.08.51,4.31.58,6.48a3,3,0,0,1-.45,1.43c-.35.37-.9.68-1.29.42-7.27-4.93-16.21-5.15-24.05-8.55-2.95-1.29-6.5-.78-9.73-1.46-.78-.16-2.16.33-2.31-.31-1-4-1.46.26-2.18.09-2.46-.6-.36,1.1-.75,1.55a45.06,45.06,0,0,1,.19,5.45c-.09,1.91.18,3.87-.77,5.66A1,1,0,0,1,925.18,464Z" transform="translate(-659.99 -163.45)"/><path class="cls-1" d="M926,494.06h19c-.39,2.66-2.61,2-4.22,2.19a58,58,0,0,1-6.31.07c9.71,3,19.71,5.28,29.54,8.17a6,6,0,0,1,3.76,3.7,30.25,30.25,0,0,1,.15,6.38,3,3,0,0,1-.55,1.42c-4.63-2.6-10-2.53-14.92-4.42A72.86,72.86,0,0,0,927,506.21c-1.31-1.06-.76-2.71-1.29-4C925,499.45,926,496.77,926,494.06Z" transform="translate(-659.99 -163.45)"/><path class="cls-1" d="M967,508c-6.24-4.17-13.57-5.32-20.64-6.75-4.64-.93-8.65-4.33-13.74-3.4a1.61,1.61,0,0,1-1.72-1.95c.24-1.4,1.57-.76,2.44-.88,3.87-.51,7.9,1,11.65-1,6.8-.07,13.6,0,20.4-.26,3.08-.12,3.48,1.22,3.47,3.82-.05,13.11,0,26.23.11,39.34h0l-.43.09-.42-.1a6,6,0,0,1-1.06-1.49c-.64-6.51-1-13,.36-19.49.22-2.64.05-5.29.1-8,0-.46,0-.92,0-1.38C967.13,507,967.59,507.71,967,508Z" transform="translate(-659.99 -163.45)"/><path class="cls-1" d="M926,502c1.45,1.05.84,2.61,1,4,1.81,1.81,1.15,4.32,1.75,6.51-.41.42,1,.1.38,0-.47-.06-.44-.15-.2-.47a3.79,3.79,0,0,1,4.46-1.28c9,2.71,18.21,4.6,27.28,7a9.79,9.79,0,0,1,6.69,5.41,25.18,25.18,0,0,1,0,6.18c-11.12-1.65-20.77-7.28-31.77-8.35-3.46-.34-8.1.3-8.7-4.79.07,2.17.7,4.76.53,7.41-.21,3.94.74,8-.73,11.82a1.06,1.06,0,0,1-1.46.49q0-11.51,0-23C926.22,509.36,924.73,505.58,926,502Z" transform="translate(-659.99 -163.45)"/><path class="cls-1" d="M925.2,484l0-4c.79-2.44.1-5,.4-7.44a1.41,1.41,0,0,1,1-1c8.72,1.65,17.53,2.87,25.55,7.16,3.66,1.95,7.77,1.14,11.67.72,2.21-.23,1.73-2.45,1.94-4,.49-1.37-.13-3.67,2.62-3.16a101,101,0,0,1,.06,11.54,3,3,0,0,1-2.8,1.72c-10.62.35-21.23-.38-31.85-.7C930.94,484.68,928.22,482.69,925.2,484Z" transform="translate(-659.99 -163.45)"/><path class="cls-1" d="M978,475c6-1.32,11.79.18,17.17,2.26,6,2.33,11.85,4.71,19.08,3.3-2.18,4.15-5.8,1.26-8.79,3.44,3.69,0,6.65,0,9.62,0,1.56,0,3.49-.55,3.91,1.9l-5,0c-10.22-.86-20.45-.38-30.67-.53-1.87,0-5.22,1.5-5.4-1.46-.22-3.39,3.29-2.14,5.39-2.43a20.78,20.78,0,0,1,2.6.14c-2.64-.45-5.13.54-7.09-.65C976.41,479.55,976.48,477.25,978,475Z" transform="translate(-659.99 -163.45)"/><path class="cls-1" d="M967.89,484.06v-12c-2.15-3.62-1.44-7.36-.48-11.1.22-2.63.05-5.28.1-7.93,0-.46,0-.93,0-1.39-.4.36,0,1.06-.55,1.34-5.76-.6-11-2.75-16.07-5.4-4-2.09-8.7-1.46-14.25-3.6,9.67,0,17.9,0,26.13,0,1.75,0,3.7.66,5.18-1,.94.45.83,1.31.83,2.11q0,19.32,0,38.62c0,.79.18,1.68-.81,2.1A1.19,1.19,0,0,1,967.89,484.06Z" transform="translate(-659.99 -163.45)"/><path class="cls-1" d="M1019,511a26.91,26.91,0,0,0,0-3c-.28-2.42,1.45-4.87-3.93-5.32a30.63,30.63,0,0,1-12.45-3.83c-5.53-3.4-11.37-2.78-17.25-2.89-1.1,0-2.31.39-3.86-1,8.81,0,17.06,0,25.31,0,1.74,0,3.68.64,5.18-.92a4.74,4.74,0,0,1,.49-.1c7.52-.41,7.54-.41,7.52,6.85,0,10.39-.11,20.78-.16,31.18H1019c-2.13-2.28-1.08-5.15-1.45-7.75-.14-1.49.14-3,0-4.47C1017.55,516.76,1017.13,513.69,1019,511Z" transform="translate(-659.99 -163.45)"/><path class="cls-1" d="M1019.82,480c-1.65-2.51-.45-5.32-.83-8-2.4-3.13-1.22-6.76-1.41-10.19.07-8.45-.13-7.93-7.65-10.75a77,77,0,0,0-28.09-4.76,5.5,5.5,0,0,1-3.74-1.07,1.08,1.08,0,0,1,.28-1.52c3.2-1,6.36-.75,9.7-.57,10.29.55,20.64,1.06,30.94-.25,1,.34,1,1.2,1,2Z" transform="translate(-659.99 -163.45)"/><path class="cls-1" d="M1019,442.89c-1.39,1.77-3.36,1.08-5.08,1.09-10.27.06-20.53,0-30.79.06-1.74,0-3.69-.66-5.16,1,.68,4.8.43,9.64.45,14.47-.66,7.2-1.58,14.38-.58,21.64a7.6,7.6,0,0,1-.94,4.74c-1.5-.93-.75-2.41-.76-3.61,0-11.82.13-23.63-.09-35.44-.06-3.19.92-4.56,4-4.61a9.45,9.45,0,0,1,7.64,0c8.62.87,17.26.13,25.89.4C1015.39,442.63,1017.2,442.78,1019,442.89Z" transform="translate(-659.99 -163.45)"/><path class="cls-1" d="M967.89,484.06c.05.59.11,1.19.16,1.79l-40.7.33c-1.54,0-2.68-.27-2.15-2.22,1.67-3.46,3.81-4.29,6.74-1.26a3.36,3.36,0,0,0,2,1.19c10.73-.35,21.37,2.06,32.11.9A7.07,7.07,0,0,0,967.89,484.06Z" transform="translate(-659.99 -163.45)"/><path class="cls-1" d="M976.92,485.86l.19-26.7c3.82,2.21.58,5.23.89,7.84v8c-1.25,7.85,4.79,5.61,8.86,6.1-.57,1.43-1.62.77-2.38.87-1,.12-2,0-3,0-1.32.08-3,.09-2.87,1.9.15,1.61,1.85,1,2.89,1.05,9.09,0,18.18,0,27.26.06,1.76,0,3.7-.65,5.22.91C1001.63,486.24,989.27,486.46,976.92,485.86Z" transform="translate(-659.99 -163.45)"/><path class="cls-1" d="M925.19,536a7.12,7.12,0,0,0,.8,0c2-1.67,4.34-1.52,6.66-1.53,8.66,0,17.32-.07,26,.12,3.11.34,6.48-.93,9.26,1.48.05.32.12.63.2.94-13.81,1.07-27.64.2-41.46.47C925.68,537.44,925.07,537.05,925.19,536Z" transform="translate(-659.99 -163.45)"/><path class="cls-1" d="M926,502c-.46,3.63.94,7.41-.84,10.94.23-6.3-1.38-12.68.84-18.89,2.08,1.37,1.9,1.22.46,2.92C925.29,498.38,926.25,500.32,926,502Z" transform="translate(-659.99 -163.45)"/><path class="cls-1" d="M963.8,538.82h-6.6v-.5h6.6Z" transform="translate(-659.99 -163.45)"/><path class="cls-1" d="M926,472c-.36,2.65.85,5.46-.83,8v-8A.49.49,0,0,1,926,472Z" transform="translate(-659.99 -163.45)"/><path class="cls-1" d="M926,472h-.83c0-2.67,0-5.33,0-8H926c2,2.66,1.87,5.33,0,8Z" transform="translate(-659.99 -163.45)"/><path class="cls-1" d="M1020.58,491.83c-2.07,1.31-3.27,1.41-4.68.73C1017.25,491.5,1018.69,492.26,1020.58,491.83Z" transform="translate(-659.99 -163.45)"/><path class="cls-1" d="M984.84,731.47a15.35,15.35,0,0,1,1.22-3.2c8.3-12.41,33.71-10.68,40.21,2.75.68,1.41,2.67,3.26.12,4.61-2.38,1.25-3.54,0-4.73-2.42-4.67-9.63-21.2-12.38-29.09-5.13-2.25,2.08-2.82,4.8-3.41,7.57.2.45-.08,1.23-.17,1.15C987.3,735.27,984.34,734.68,984.84,731.47Z" transform="translate(-659.99 -163.45)"/><path class="cls-1" d="M1023.85,773.89c-10.16,9-28.83,8.07-37-1.92a6,6,0,0,1,4.12-2.06c10.24,7.94,22.81,7.54,31-1C1026.76,769,1025.78,771.28,1023.85,773.89Z" transform="translate(-659.99 -163.45)"/><path class="cls-1" d="M984.84,731.47c-.26,2.64,4,1.81,3.53,4.63a1.34,1.34,0,0,0,.46-.09c.14-.08.22-.24.33-.36,1.28,4.13,4.23,6.51,8.22,7.76s7.73,2.38,11.6,3.57c-.35.34.14,1.77.69,2.08s1.66.76,1.17,1.76-1.4.46-2.17.23c-6.06-1-12.06-2.44-17.57-5.25C984.89,742.64,983,738,984.84,731.47Z" transform="translate(-659.99 -163.45)"/><path class="cls-1" d="M1008.67,751.05c.49-.2,1.67-.41,1.25-.72a17.43,17.43,0,0,0-4-1.7c.71-1.25,2.54-.28,3.08-1.65,7,1.54,14,3.07,18,10-.93,2.94-1,3-4.77,1.93C1018.87,754.27,1013.47,753.18,1008.67,751.05Z" transform="translate(-659.99 -163.45)"/><path class="cls-1" d="M1022.21,758.9c1.44-1,4,.83,4.77-1.93,3.31,6.71,2.39,11.71-3.13,16.92.51-2.07.78-4.06-1.86-4.95A12.21,12.21,0,0,0,1022.21,758.9Z" transform="translate(-659.99 -163.45)"/><path class="cls-1" d="M991,769.91c-.78,1.89-2.39,2.1-4.12,2.06-2.14-1.53-2.87-3.92-3.71-6.22-.57-1.55-.45-2.7,1.57-3.32s2.88-.48,3.48,1.78C988.75,766.22,990.05,768,991,769.91Z" transform="translate(-659.99 -163.45)"/><path class="cls-1" d="M1218.14,728c-.36-7-.36-7,6.48-7,10.31,0,20.62,0,30.93,0,1.64,0,3.88-.83,3.85,2.28s-2.13,2.39-3.86,2.4c-8.65,0-17.32.41-25.93-.13-5.54-.35-6.76,1.69-6.34,6.64.34,4.12-.09,8.29-.17,12.44.14,1.79-.72,1.54-1.52.62-1.06-1.22-.59-2.79-.6-4.24-.71.67-.45,3.34-2.52,1.21C1218.28,737.51,1218.87,732.73,1218.14,728Z" transform="translate(-659.99 -163.45)"/><path class="cls-1" d="M1223.17,773.6c10.75,1.13,21.54.17,32.3.55,1.84.06,4.74-1.2,4.48,2.64-.23,3.47-3,2-4.53,2-11.28.14-22.57,0-33.85.14-2.79,0-3.74-.74-3.67-3.62.22-9.45.17-18.91.22-28.37a1.06,1.06,0,0,1,1.45.51c1.54,3.86.48,7.88.77,11.81,0,3.58-.09,7.16,0,10.75C1220.32,772,1220.62,773.68,1223.17,773.6Z" transform="translate(-659.99 -163.45)"/><path class="cls-1" d="M1219,759.93q0-6.49,0-13a4.05,4.05,0,0,1,0-4c2.12-1.53-.19-4.59,2.62-6.49.24,3,.46,5.75.69,8.46a.69.69,0,0,0,.42.06,1.32,1.32,0,0,0,.4-.28c1.39,1.78,3.37,1.06,5.1,1.08,7.13.08,14.27,0,21.4,0,1.54,0,3.05-.1,3,2.18s-1.56,2.14-3.08,2.14c-7.3,0-14.61.19-21.9-.08-3.6-.13-4.51,1.14-4.37,4.53.21,4.79-.11,9.61-.21,14.41-4.3-1.81-2.36-5.58-2.19-8.38C1221.11,756.57,1218.7,762.42,1219,759.93Z" transform="translate(-659.99 -163.45)"/><path class="cls-1" d="M1219,759.93l2.46-4.47c1.56,4.73-.92,9.44,1.65,13.51,0,1.54.07,3.09.1,4.63-.76,1.19-1.9,2.22-3.23,1.78-1.65-.53-.92-2.28-1-3.49C1218.9,767.9,1219,763.91,1219,759.93Z" transform="translate(-659.99 -163.45)"/><path class="cls-1" d="M1219,742.93c0,1.34,0,2.69,0,4l-.8,0q0-9.47,0-19C1219.86,732.89,1218.52,738,1219,742.93Z" transform="translate(-659.99 -163.45)"/><path class="cls-1" d="M929.11,735.93c-1-14.94-1-14.93,13.48-14.92H967c1.68,0,3.34-.25,3.31,2.38s-1.69,2.37-3.37,2.37c-9.3,0-18.6,0-27.9,0-1.71,0-3.72-.77-5,1.13s-2.33,1.37-3.28-.3c-.19-.34-.09-.57.12-.65C930.33,729.24,933.37,733.29,929.11,735.93Z" transform="translate(-659.99 -163.45)"/><path class="cls-1" d="M930,778.63c-2.13-2.72-.78-5.79-.9-8.72,1.07-2.85-.25-5.93.87-9,3.36,1.19,1,4.49,2.29,5.53.28,1.35,1.27.61.63.8a.52.52,0,0,1-.06-.18c-.56-2.83-2.72-5.88,1.14-8.08.08,1.33.2,2.65.21,4,.08,11.21.07,11.21,11.53,11.21h21.46c1.77,0,3.79-.51,3.75,2.5,0,2.75-1.88,2.22-3.45,2.21q-18.21-.08-36.42-.2c.48-2,2.15-1.14,3.25-1.15,10-.07,20,0,30,0-9.75,0-19.49,0-29.23,0C933.35,777.44,931.4,776.9,930,778.63Z" transform="translate(-659.99 -163.45)"/><path class="cls-1" d="M934,734c0,.16.07.33.11.49.72,3.69-1.71,8.8,1.19,10.8,2.61,1.8,7.36.52,11.17.54,4.64,0,9.28,0,13.92,0,1.49,0,3-.21,3,2.16s-1.51,2.16-3,2.15q-12.93,0-25.86-.07c-1.77.67-.85,2.2-1,3.35s-.39,2.45-1.74,2.55c-1.54.1-1.58-1.32-1.7-2.43a17.3,17.3,0,0,0-.37-3.37c-.17-3.38-.51-6.76.21-10.22,2.26.59,2.05,2,1.83,3.55.08.1.16,0,.22-.5.22-1.65-.38-3.28-.19-4.89S931.33,734.28,934,734Z" transform="translate(-659.99 -163.45)"/><path class="cls-1" d="M934,734c-2.17,3.9-.05,8.43-1.91,12.64-1.9-1.51-.45-3.78-2.06-6.55v9.9a.87.87,0,0,1,.33.69c0,.27-.06.41-.12.41a.81.81,0,0,1-1.09-.1q0-7.5,0-15c2-3.59.07-7.67,1.58-12.51.66,2.41.55,5.08,3.3,3.52Z" transform="translate(-659.99 -163.45)"/><path class="cls-1" d="M930,750.94c0-.34,0-.67,0-1,2,1.26.1,3.79,1.66,5.22,2.5-.91.08-4.45,2.85-5.12-.18,3-.35,5.93-.53,8.9-2.12,2.67-.29,5.84-1.2,8.72-2.1-1.32-1.4-3.81-2.21-6-1.43,2.85.53,5.9-1.46,8.25,0-3.33,0-6.67,0-10C930.25,757,928.73,753.83,930,750.94Z" transform="translate(-659.99 -163.45)"/><path class="cls-1" d="M930,778.63a1.94,1.94,0,0,1,2.11-1.68c11.25,0,22.5,0,33.75,1-9.67,0-19.35,0-29,0-1.93,0-4-.62-5.79.69Z" transform="translate(-659.99 -163.45)"/><path class="cls-1" d="M930,750.94c-.39,3,.9,6.12-.87,9v-9Z" transform="translate(-659.99 -163.45)"/><path class="cls-1" d="M1092,768.92l5.86-10.26c2-2.76,4.84-2.48,7.72-2.12,9.62-.2,19.24,0,28.85-.14,2.18-.15,4.39-.1,6.57-.46,4.17,5.51,6.41,12.09,10,17.89-1.76,2.81-3.6.31-3.82-.61-.61-2.48-1.55.38-2-.35-3.27-10.09-10.82-11.31-20.1-10.48-7.54.66-15.21,0-22.82-.15.48-.92,1.35-.78,2.15-.78h30.79a6.42,6.42,0,0,1,1.24,0c-10.93,0-22.19,0-33.45,0a2.84,2.84,0,0,0-2,1.28q-2.58,4.56-5.17,9.13C1093.19,772.57,1091.11,772.63,1092,768.92Z" transform="translate(-659.99 -163.45)"/><path class="cls-1" d="M1115.83,726.66q1.41,2.15,2.8,4.29c-.88,6.52-4.48,11.59-8.69,16.35a4.09,4.09,0,0,1-4.39-2.51A177.83,177.83,0,0,1,1115.83,726.66Z" transform="translate(-659.99 -163.45)"/><path class="cls-1" d="M1141,755.94c-1.17,2.39-2.86,2.31-4.8,1-4.61-3.08-6.36-7.85-7.55-12.94.94-1.8,2.52-2.3,4.42-2.18A100.38,100.38,0,0,1,1141,755.94Z" transform="translate(-659.99 -163.45)"/><path class="cls-1" d="M1105.55,744.79l4.19,2.14c.31,4.75-2.78,7.77-5.58,10.93-2.32-1.37-4.26.24-6.33.8A99.44,99.44,0,0,1,1105.55,744.79Z" transform="translate(-659.99 -163.45)"/><path class="cls-1" d="M1133,741.81c-.94,1.49-2.83,1.17-4,2.13-3.58-1.07-4.28-3.74-3.91-7,2.82-1.3.82-4.11,1.86-6A62,62,0,0,1,1133,741.81Z" transform="translate(-659.99 -163.45)"/><path class="cls-1" d="M1092,768.92c-.23,2.91,2.36,2.18,3.79,3-1.93,3.48-2.59,8.66-9,6.55A42.1,42.1,0,0,1,1092,768.92Z" transform="translate(-659.99 -163.45)"/><path class="cls-1" d="M1100.93,762.75c.3-1.39,1.24-1.81,2.56-1.81h35.63c0,.43,0,.86,0,1.29h-36.9Z" transform="translate(-659.99 -163.45)"/><path class="cls-1" d="M1145.15,772.87c.44-1,.87-2,1.33-3,1,2,1.28,4.71,4.54,4a11.29,11.29,0,0,1,2.63,4.56C1148,780.39,1146.63,776.58,1145.15,772.87Z" transform="translate(-659.99 -163.45)"/><path class="cls-1" d="M660.23,752.89c1.88-6.14.15-12.48,1.1-19.17,1.35,2.48,1.62,4.91,2.13,8.08,1.66-5.79-1-11.06,1.83-15.76,2.27,4.4,1,9.12,1.12,13.68.24,12-.92,10.71,11.17,10.79a37.4,37.4,0,0,0,5-.28A15,15,0,0,0,695,741.55c2.38-.77,4.18-2,4.17-4.88,0-.87.47-1.91,1.8-1.7,2,9.88-1.5,15.57-12.89,20.55l4.69,7.47a3.42,3.42,0,0,1-3.68,2.89l-1.29-1.46c-2.27-2.54-3.09-7.15-6.44-7.71-4.93-.82-10.14,0-15.23.2-.35,0-.68.66-1,1-1.55,3.14.46,6.77-1.25,10.18-2.26-1.12-1.59-3.17-1.9-4.12-.19-1.3-1.19-.42-.59-.69.09,0,.14.07.2.31a31.49,31.49,0,0,1,.87,8.31c0,2.46.6,4.55,2.65,6.06-4.79,1.63-5,1.57-5-2.64C660,767.85,660.17,760.37,660.23,752.89Z" transform="translate(-659.99 -163.45)"/><path class="cls-1" d="M689.07,765.88l3.68-2.89,10.8,15.3c-4.15,1.43-6.54.32-8.35-2.9S691.13,769,689.07,765.88Z" transform="translate(-659.99 -163.45)"/><path class="cls-1" d="M701,735c-1.47,1.35-.65,3.14-.93,4.72-.48,2.75-1.65,3.58-3.83,1.25A28.3,28.3,0,0,1,693,730.16c-.12-2.12,2.43-1.74,3-3.2A9.7,9.7,0,0,1,701,735Z" transform="translate(-659.99 -163.45)"/><path class="cls-1" d="M665.07,778c-2.89.29-4.24-.74-4.07-3.9.22-4.3,0-8.61.57-13.06l2,6.13c1.34-3.13-.83-6.52,1.48-9.22A150.73,150.73,0,0,1,665.07,778Z" transform="translate(-659.99 -163.45)"/><path class="cls-1" d="M826,753q3.4,6,6.83,12c-.8,4.29-3.18.72-4.79,1-1.47-2.74-3.65-3.55-6.82-3.47-9.57.25-19.15.07-28.73.09-1.79,0-3.65-.3-5.31.73a.91.91,0,0,1,.1-1.51c12.1-.77,24.21,0,35.72-.36-11.2,0-23,0-34.8,0-1.3.25-1.67,1.43-2.33,2.33-.8,1.08-.62,3.42-2.53,3s-1.14-2.41-1.27-3.81q3.91-7.05,7.82-14.09c2.47-.45,3.27,1.17,3.84,3.09-.64,3.17.1,4.88,3.91,4.73,6.41-.25,12.82-.1,19.23,0,2.06,0,3.67-.27,3.37-2.9C821.6,749.54,824,753.09,826,753Z" transform="translate(-659.99 -163.45)"/><path class="cls-1" d="M798.27,734c1.88-3.48,3.78-7,5.66-10.45,1.74-3.24,3.66-3.82,5.64-.26,2.89,5.18,5.66,10.43,8.48,15.65.22,2.51-1.48,3.49-3.42,4.27-4.17-2.63-4.12-8.16-7.91-11.41-1.43,1.54-2,3.87-4,4.87C799.92,738,798.82,736.46,798.27,734Z" transform="translate(-659.99 -163.45)"/><path class="cls-1" d="M787.05,761.93l.11,1.35c-2.09,3.93-4.33,7.78-6.21,11.81-1.58,3.4-3.82,4.69-7.93,3.27,3-5.2,6-10.31,9-15.41,1.27.65.7,2.08,1.34,3.13,1.77-.93,1.58-3.58,3.66-4.16Z" transform="translate(-659.99 -163.45)"/><path class="cls-1" d="M798.27,734c1.41.63,1.82,3.24,4.14,2.07a25.3,25.3,0,0,1-9.18,16.35,6.43,6.43,0,0,0-3.36-3.55Z" transform="translate(-659.99 -163.45)"/><path class="cls-1" d="M828,765.93c.6-1,1.12-2.29,2.31-.43s1.7-.1,2.48-.53l8.13,13.94C831,779,831.54,770.54,828,765.93Z" transform="translate(-659.99 -163.45)"/><path class="cls-1" d="M815.05,742.85l3-3.92L825,750l0,0,1,3c-1.58,2.25-3.48-1.34-5.09.27C816.87,750.93,815.05,747.4,815.05,742.85Z" transform="translate(-659.99 -163.45)"/><path class="cls-1" d="M722,721.31l.15,22.62a6.8,6.8,0,0,1,0,5v25.9l1.09,0V762.76c2.64,2,1.43,3.93,1.59,5.53l1.24,0c0-4.26-.11-8.53.05-12.79.06-1.86-1-4.07,1.21-5.5-.88,7.13-.13,14.28-.45,21.42-.13,2.9,1.67,2.67,3.53,2.67,9.32,0,18.64-.05,28,.06,1.51,0,3.33-.93,4.59.8-.46,2.82-2.61,2.45-4.59,2.45h-31c11.19.34,23.41-.57,35.61.5-.61,1.6-2,.88-3,.89-11.65.05-23.3,0-35,.07-2.18,0-3.83.08-3.81-3,.08-17.81,0-35.62,0-53.42C721.22,722.09,721.71,721.7,722,721.31Z" transform="translate(-659.99 -163.45)"/><path class="cls-1" d="M763,777.92H725.19v-1q16,0,32,0c2.16,0,4.38.29,5.74-2C762.92,776,762.93,776.94,763,777.92Z" transform="translate(-659.99 -163.45)"/><path class="cls-1" d="M1059.8,726.23c-6.12-1-12.27-.19-18.4-.47-1.53-.07-3.41.58-3.55-2.15-.14-3,1.75-2.61,3.59-2.61h41.87c1.88,0,3.75-.3,3.61,2.62-.13,2.7-2,2.13-3.56,2.14-4.49,0-9,.24-13.46-.06-3.77-.25-5.15.72-5,4.83.29,9.79,0,19.59-.06,29.39l-.9.12c-.2-.23-.39-.46-.59-.68-1.65-6.08-.48-12.28-.73-18.41,0-3.46.2-6.94,0-10.41C1062.52,728.63,1062.78,726.33,1059.8,726.23Z" transform="translate(-659.99 -163.45)"/><path class="cls-1" d="M1064,739.94v20a47.85,47.85,0,0,1-.2,6.88c-.21,1.18-.91,2.25-2.28,2.06s-.92-1.5-1-2.38c-.39-4.85.73-9.76-.64-14.57a168.08,168.08,0,0,1,0-22c4.19,2,2.2,5.78,2.22,8.71C1062.11,740.89,1063,740.09,1064,739.94Z" transform="translate(-659.99 -163.45)"/><path class="cls-1" d="M1059.87,751.91c2.33,3.33.64,7.07,1.08,10.6a53.22,53.22,0,0,1,0,6c3.77-2.39.43-6.46,3-8.57h0c1,5.26.31,10.57.44,15.86.09,3.74-2.44,2.62-4.51,2.19A226.74,226.74,0,0,1,1059.87,751.91Z" transform="translate(-659.99 -163.45)"/><path class="cls-1" d="M1064,739.94c-1.64.91-.32,3.3-2.44,4.32-1.81-4.68,1.07-9.91-1.65-14.34,0-1.23-.06-2.46-.08-3.69.46-.88,1-2,2.07-1.83,1.57.26,1.94,1.83,2,3.09C1064,731.64,1064,735.79,1064,739.94Z" transform="translate(-659.99 -163.45)"/><path class="cls-1" d="M1059.92,778c3.3.43,4.25-1.15,4.11-4.28-.2-4.58,0-9.18,0-13.77h.82q0,9.47,0,18.91l0,0C1063.23,778.47,1061.3,779.86,1059.92,778Z" transform="translate(-659.99 -163.45)"/><path class="cls-1" d="M1175.27,770.89a5,5,0,0,0,.67,0c1.8,2,1,5.47,3.9,6.88a1.77,1.77,0,0,0,.41.31c-3.5,1.73-5.59,1.22-5.18-3.27C1175.18,773.52,1175.21,772.21,1175.27,770.89Z" transform="translate(-659.99 -163.45)"/><path class="cls-1" d="M1179.84,777.79c-6.51.66-2.84-4.45-3.9-6.88q.06-9.88.11-19.79c2.3.11,1.76,1.93,1.86,3.25a50.71,50.71,0,0,0,.32,5.9c.12.65,1.12-.26.49,0-.08,0-.13,0-.17-.2-1.08-4.16-.55-8.44-.83-12.66-.08-1.24-.11-3.11,2.09-3.16Z" transform="translate(-659.99 -163.45)"/><path class="cls-1" d="M1179.81,744.22c-2,5.74-.12,11.69-1.1,17.67-3.26-3.09-.4-7.59-2.66-10.77V727.05h1v8.73c3-2.15,1.2-4.95,2.79-7.59Z" transform="translate(-659.99 -163.45)"/><path class="cls-1" d="M859.79,735.75V763.6l-.62,0V749l-1.47-.18c-1.45,3.06-.19,6.69-1.64,9.89V725.92c1-1-.17-3.58,2.11-3.26,2.07.28,1.21,2.36,1.31,3.71C859.71,729.49,859.16,732.64,859.79,735.75Z" transform="translate(-659.99 -163.45)"/><ellipse class="cls-1" cx="219.42" cy="611.96" rx="16.05" ry="0.31"/><path class="cls-1" d="M859.79,735.75c-2-3.9.36-8.38-1.37-12.33-1.71.24-1.23,2.06-2.36,2.5-.67-3.39,1.2-4.29,4.11-4.16l0,.06Q860,728.78,859.79,735.75Z" transform="translate(-659.99 -163.45)"/><path class="cls-1" d="M1019,524q0,4,0,8c-.09,4.58-3.74,5.13-6.26,3.79-7.73-4.1-16.83-1.49-24.46-5.68a19.3,19.3,0,0,0-7.28-2.33c-3.77-.4-2.86-4.08-3-6.77,0-4.48,2.46-4.76,6.1-3.84,8.34,2.12,16.61,4.45,24.92,6.66A23.81,23.81,0,0,0,1019,524Z" transform="translate(-659.99 -163.45)"/><path class="cls-1" d="M1019,511c0,3,0,6,0,9-1,1.91-2.57,1.54-4.29,1.31-6.3-.86-12.15-3.22-18.15-5.09-3-.94-6-2-9-2.84-3.51-1-6.76-1.28-9.54,1.61v-3a5.73,5.73,0,0,1,0-5c1.36-4.24,3.54-4.81,8-3.34,9.25,3.08,18.84,5.14,28.3,7.6C1015.86,511.66,1017.47,512.1,1019,511Z" transform="translate(-659.99 -163.45)"/><path class="cls-1" d="M978,515c2-5.27,3.29-5.62,12.06-2.38a267.2,267.2,0,0,0,26.1,8c1.14.29,1.91-.29,2.82-.6v4c-1.68.9-.3,3.34-2.2,4.22-1.63-.64-.17-2.45-1.24-3.36-.78.84-.18,2.76-3,1.66-9.95-3.83-20.51-5.77-30.78-8.63-3.51-1-2.25,2.4-3.74,3.1C978,519,978,517,978,515Z" transform="translate(-659.99 -163.45)"/><path class="cls-1" d="M978,507c0,1.67,0,3.33,0,5h-.89V497.23h.9Z" transform="translate(-659.99 -163.45)"/><path class="cls-1" d="M723.06,738.93c.28-3.67-.7-7.45,2-11.1q0,5.05,0,10.11Z" transform="translate(-659.99 -163.45)"/><path class="cls-1" d="M722.11,748.91c0-1.66,0-3.32,0-5H723C722.82,745.62,723.68,747.49,722.11,748.91Z" transform="translate(-659.99 -163.45)"/><path class="cls-1" d="M1145,536c12.2,0,24.4,0,36.6,0,2,0,4,0,5.18-2l1.74,2.12c-.46,1.55-1.74,1.26-2.86,1.26q-43.36,0-86.73-.06A10.13,10.13,0,0,1,1097,537c1.48-1.62,3.43-1,5.17-1C1116.41,536,1130.69,536,1145,536Z" transform="translate(-659.99 -163.45)"/><path class="cls-1" d="M805.91,610.91A5.54,5.54,0,0,1,804,614c-.71-1.86-1.41-3.73-2.13-5.64C804.4,607.4,804.58,610.06,805.91,610.91Z" transform="translate(-659.99 -163.45)"/><path class="cls-1" d="M922.7,262.36c-.27-.36-.61-.64-.56-.79a3.5,3.5,0,0,1,.82-1.67c.58-.43.89.15.71.68A11.75,11.75,0,0,1,922.7,262.36Z" transform="translate(-659.99 -163.45)"/><path class="cls-1" d="M1165,507.87c1.39,1,2.54,2.09,1.27,3-1.65,1.16-1.06-.74-1.24-1.41A6.17,6.17,0,0,1,1165,507.87Z" transform="translate(-659.99 -163.45)"/><path class="cls-1" d="M973,264q0-14,0-28h1v20C973.56,258.7,975,261.57,973,264Z" transform="translate(-659.99 -163.45)"/><path class="cls-1" d="M991.84,208.07c-.72-.13-1.94-.08-2.08-.44-.61-1.57.63-.7,1.14-.65a4.77,4.77,0,0,1,1.22.46Z" transform="translate(-659.99 -163.45)"/><path class="cls-1" d="M1032.17,573a10.46,10.46,0,0,1,2.54.26c.15,1.23-.93.55-1.49.66a3.42,3.42,0,0,1-1.28-.27Z" transform="translate(-659.99 -163.45)"/><path class="cls-1" d="M1100,562a8.09,8.09,0,0,1,7.36,0Z" transform="translate(-659.99 -163.45)"/><path class="cls-1" d="M978,467c-.42-2.6.88-5.4-.89-7.84.31-4.72-1.15-9.54.88-14.15h0c.84,4.93,4.62,5.51,8.64,7.23,10.46,4.44,21.67,5.49,32.34,8.77,0,3.66,0,7.33,0,11-1.3.27-1.92,3.56-4.12.26-1.41-2.12-5-.2-7.87-1.29-7.68-2.93-15.49-5.78-23.74-7C980.43,463.52,978.73,464.22,978,467Z" transform="translate(-659.99 -163.45)"/><path class="cls-1" d="M926,452c-.91-3,3.34-2.63,3.25-5.33.32,4.9,4.38,3.14,6.44,3.45,4.12.61,8.29,1.2,12,3,6.29,3.05,14.41,1.56,19.33,7.88a1.74,1.74,0,0,1,.43.87c.67,9,.66,9-7.8,6.27-6.61-2.12-13.21-4.3-20.18-5a8.38,8.38,0,0,1-4.18-1.44c-2.7-1.94-5.45-1.81-8.32-.57-.65-.94-.35-2-.43-3C926.27,456.1,927.08,454,926,452Z" transform="translate(-659.99 -163.45)"/><path class="cls-1" d="M927,458c0,1,0,2,0,3,1.22,2.85,3.87,3.74,6.47,4.5,9,2.63,18.14,4.65,27.2,7.06,2.48.67,4.74,1.31,6.32,3.44.56,3.8-.83,5.15-4.88,5.13a36.73,36.73,0,0,1-15.82-3.58C940,474.66,932.82,473.76,926,472c0-2.67,0-5.33,0-8l0-6C926.35,457.54,926.67,457.56,927,458Z" transform="translate(-659.99 -163.45)"/><path class="cls-1" d="M967,476q-16.56-4.49-33.13-9c-3.3-.88-7.21-1-6.86-6,1.42-3,3.68-3.83,6.3-1.73,4.7,3.77,10.65,2.86,15.93,4.37,5.8,1.64,11.39,3.83,17.76,5.58V460c.3-.46.6-.43.88,0q0,6,0,12.07C966.53,473.15,967.15,474.66,967,476Z" transform="translate(-659.99 -163.45)"/><path class="cls-1" d="M967.88,460l-.88,0V449.22l.88,0Z" transform="translate(-659.99 -163.45)"/><path class="cls-1" d="M927,458h-1v-6C927.81,453.77,926.69,456,927,458Z" transform="translate(-659.99 -163.45)"/><path class="cls-1" d="M967.9,536l-8.9,0c-.48-1.26-1.53-1.57-2.74-1.75-7.7-1.17-14.83-4.5-22.54-5.77A10.26,10.26,0,0,1,926,523v-9.57c1.85,4.84,4.74,6,8.13,6.07,9.62.1,17.86,5.4,27.06,7,2.13.38,4.36.16,5.8,4V523c-1.36-2.33-1.87-4.67,0-7v-1c.31-.45.6-.44.88,0Q967.9,525.52,967.9,536Z" transform="translate(-659.99 -163.45)"/><path class="cls-1" d="M967,516v7c-3.14,1.42-1.7-2.73-4.25-3.26-10.11-2.14-20-5.2-30-7.92-.16,0-.35-.18-.47-.14-6.79,2.77-5.06-2.35-5.26-5.68,1.35-2.57,3.93-1.65,5.62-1.31,10.48,2.07,20.35,6.53,31,8C965.85,513,964.39,516.44,967,516Z" transform="translate(-659.99 -163.45)"/><path class="cls-1" d="M967.88,515c-.29,0-.59,0-.88,0V504.18h.88Z" transform="translate(-659.99 -163.45)"/><path class="cls-1" d="M926,523c2.71,2.56,6,4.62,9.55,4.79,8.21.39,15.22,5.35,23.54,5.42,3.36,0,0,1.79-.1,2.78l-33,0Q926,529.47,926,523Z" transform="translate(-659.99 -163.45)"/><path class="cls-1" d="M1019,461c-8.07-.45-16.06-1.54-23.68-4.27-3.69-1.33-7-3.79-11.1-3.8-5.67,0-7.06-3-6.2-7.93,14-1.28,27.17,2.6,41,7.46Z" transform="translate(-659.99 -163.45)"/><path class="cls-1" d="M975,494c-1.41-1.42-1.41-1.42.22-3.37,1.17,1.23-.62,2.24-.22,3.37Z" transform="translate(-659.99 -163.45)"/><ellipse class="cls-1" cx="291.11" cy="612.04" rx="22.38" ry="0.27"/><path class="cls-1" d="M787.05,761.92c.4-.28.8-.8,1.2-.8,12.23,0,24.45,0,36.67.81H787.05Z" transform="translate(-659.99 -163.45)"/><ellipse class="cls-1" cx="84.45" cy="611.97" rx="21.7" ry="0.28"/></svg>